<mxfile host="65bd71144e">
    <diagram id="s_DgM6LJzYbKPXjwjrtn" name="Page-1">
        <mxGraphModel dx="1180" dy="500" grid="1" gridSize="10" guides="1" tooltips="1" connect="1" arrows="1" fold="1" page="1" pageScale="1" pageWidth="850" pageHeight="1100" background="none" math="0" shadow="0">
            <root>
                <mxCell id="0"/>
                <mxCell id="1" parent="0"/>
                <mxCell id="71" value="" style="group;fillColor=#f5f5f5;fontColor=#333333;strokeColor=#666666;" parent="1" vertex="1" connectable="0">
                    <mxGeometry x="10" y="50" width="350" height="20" as="geometry"/>
                </mxCell>
                <mxCell id="72" value="2" style="rounded=0;whiteSpace=wrap;html=1;fillColor=#f5f5f5;fontColor=#333333;strokeColor=#666666;" parent="71" vertex="1">
                    <mxGeometry width="20" height="20" as="geometry"/>
                </mxCell>
                <mxCell id="73" value="&lt;font color=&quot;#3333ff&quot;&gt;&amp;lt;st-list&amp;gt;&lt;/font&gt;" style="rounded=0;whiteSpace=wrap;html=1;fillColor=#f5f5f5;fontColor=#333333;strokeColor=#666666;" parent="71" vertex="1">
                    <mxGeometry x="20" width="80" height="20" as="geometry"/>
                </mxCell>
                <mxCell id="74" value="&lt;span style=&quot;color: rgb(51 , 51 , 255)&quot;&gt;&amp;lt;state&amp;gt;&amp;nbsp;&lt;/span&gt;&lt;font color=&quot;#ff0000&quot;&gt;;&lt;/font&gt;&amp;nbsp;&lt;font color=&quot;#3333ff&quot;&gt;&amp;lt;st-list&amp;gt;&lt;/font&gt;" style="rounded=0;whiteSpace=wrap;html=1;fillColor=#f5f5f5;fontColor=#333333;strokeColor=#666666;" parent="71" vertex="1">
                    <mxGeometry x="100" width="250" height="20" as="geometry"/>
                </mxCell>
                <mxCell id="75" value="" style="group;fillColor=#f5f5f5;fontColor=#333333;strokeColor=#666666;" parent="1" vertex="1" connectable="0">
                    <mxGeometry x="10" y="90" width="350" height="20" as="geometry"/>
                </mxCell>
                <mxCell id="76" value="3" style="rounded=0;whiteSpace=wrap;html=1;fillColor=#f5f5f5;fontColor=#333333;strokeColor=#666666;" parent="75" vertex="1">
                    <mxGeometry width="20" height="20" as="geometry"/>
                </mxCell>
                <mxCell id="77" value="&lt;span style=&quot;color: rgb(51 , 51 , 255)&quot;&gt;&amp;lt;st-list&amp;gt;&lt;/span&gt;" style="rounded=0;whiteSpace=wrap;html=1;fillColor=#f5f5f5;fontColor=#333333;strokeColor=#666666;" parent="75" vertex="1">
                    <mxGeometry x="20" width="80" height="20" as="geometry"/>
                </mxCell>
                <mxCell id="78" value="&lt;font color=&quot;#ff0000&quot;&gt;end&lt;/font&gt;" style="rounded=0;whiteSpace=wrap;html=1;fillColor=#f5f5f5;fontColor=#333333;strokeColor=#666666;" parent="75" vertex="1">
                    <mxGeometry x="100" width="250" height="20" as="geometry"/>
                </mxCell>
                <mxCell id="79" value="" style="group;fillColor=#f5f5f5;fontColor=#333333;strokeColor=#666666;" parent="1" vertex="1" connectable="0">
                    <mxGeometry x="10" y="270" width="350" height="20" as="geometry"/>
                </mxCell>
                <mxCell id="80" value="11" style="rounded=0;whiteSpace=wrap;html=1;fillColor=#f5f5f5;fontColor=#333333;strokeColor=#666666;" parent="79" vertex="1">
                    <mxGeometry width="20" height="20" as="geometry"/>
                </mxCell>
                <mxCell id="81" value="&lt;font color=&quot;#3333ff&quot;&gt;&amp;lt;define&amp;gt;&lt;/font&gt;" style="rounded=0;whiteSpace=wrap;html=1;fillColor=#f5f5f5;fontColor=#333333;strokeColor=#666666;" parent="79" vertex="1">
                    <mxGeometry x="20" width="80" height="20" as="geometry"/>
                </mxCell>
                <mxCell id="82" value="&lt;font color=&quot;#ff0000&quot;&gt;(&lt;/font&gt;&amp;nbsp;&lt;font color=&quot;#3333ff&quot;&gt;&amp;lt;f_p-list&amp;gt;&amp;nbsp;&lt;/font&gt;" style="rounded=0;whiteSpace=wrap;html=1;fillColor=#f5f5f5;fontColor=#333333;strokeColor=#666666;" parent="79" vertex="1">
                    <mxGeometry x="100" width="250" height="20" as="geometry"/>
                </mxCell>
                <mxCell id="99" value="" style="group;fillColor=#f5f5f5;fontColor=#333333;strokeColor=#666666;" parent="1" vertex="1" connectable="0">
                    <mxGeometry x="10" y="490" width="350" height="20" as="geometry"/>
                </mxCell>
                <mxCell id="100" value="22" style="rounded=0;whiteSpace=wrap;html=1;fillColor=#f5f5f5;fontColor=#333333;strokeColor=#666666;" parent="99" vertex="1">
                    <mxGeometry width="20" height="20" as="geometry"/>
                </mxCell>
                <mxCell id="101" value="&lt;font color=&quot;#3333ff&quot;&gt;&amp;lt;f_state&amp;gt;&lt;/font&gt;" style="rounded=0;whiteSpace=wrap;html=1;fillColor=#f5f5f5;fontColor=#333333;strokeColor=#666666;" parent="99" vertex="1">
                    <mxGeometry x="20" width="80" height="20" as="geometry"/>
                </mxCell>
                <mxCell id="102" value="&lt;font color=&quot;#ff0000&quot;&gt;var_id&amp;nbsp;&lt;/font&gt;&lt;font color=&quot;#3333ff&quot;&gt;&amp;lt;exoras&amp;gt;&lt;/font&gt;" style="rounded=0;whiteSpace=wrap;html=1;fillColor=#f5f5f5;fontColor=#333333;strokeColor=#666666;" parent="99" vertex="1">
                    <mxGeometry x="100" width="250" height="20" as="geometry"/>
                </mxCell>
                <mxCell id="103" value="" style="group;fillColor=#f5f5f5;fontColor=#333333;strokeColor=#666666;" parent="1" vertex="1" connectable="0">
                    <mxGeometry x="10" y="130" width="350" height="20" as="geometry"/>
                </mxCell>
                <mxCell id="104" value="4" style="rounded=0;whiteSpace=wrap;html=1;fillColor=#f5f5f5;fontColor=#333333;strokeColor=#666666;" parent="103" vertex="1">
                    <mxGeometry width="20" height="20" as="geometry"/>
                </mxCell>
                <mxCell id="105" value="&lt;font color=&quot;#3333ff&quot;&gt;&amp;lt;state&amp;gt;&lt;/font&gt;" style="rounded=0;whiteSpace=wrap;html=1;fillColor=#f5f5f5;fontColor=#333333;strokeColor=#666666;" parent="103" vertex="1">
                    <mxGeometry x="20" width="80" height="20" as="geometry"/>
                </mxCell>
                <mxCell id="106" value="&lt;font color=&quot;#ff0000&quot;&gt;function id&amp;nbsp;&lt;/font&gt;&lt;font color=&quot;#3333ff&quot;&gt;&amp;lt;define&amp;gt; &lt;/font&gt;&lt;font color=&quot;#ff0000&quot;&gt;: type_id {&amp;nbsp;&lt;/font&gt;&lt;span style=&quot;color: rgb(51 , 51 , 255)&quot;&gt;&amp;lt;f_list&amp;gt;&lt;/span&gt;" style="rounded=0;whiteSpace=wrap;html=1;fillColor=#f5f5f5;fontColor=#333333;strokeColor=#666666;" parent="103" vertex="1">
                    <mxGeometry x="100" width="250" height="20" as="geometry"/>
                </mxCell>
                <mxCell id="107" value="" style="group;fillColor=#f5f5f5;fontColor=#333333;strokeColor=#666666;" parent="1" vertex="1" connectable="0">
                    <mxGeometry x="10" y="450" width="350" height="20" as="geometry"/>
                </mxCell>
                <mxCell id="108" value="20" style="rounded=0;whiteSpace=wrap;html=1;fillColor=#f5f5f5;fontColor=#333333;strokeColor=#666666;" parent="107" vertex="1">
                    <mxGeometry width="20" height="20" as="geometry"/>
                </mxCell>
                <mxCell id="109" value="&lt;font color=&quot;#3333ff&quot;&gt;&amp;lt;f-list&amp;gt;&lt;/font&gt;" style="rounded=0;whiteSpace=wrap;html=1;fillColor=#f5f5f5;fontColor=#333333;strokeColor=#666666;" parent="107" vertex="1">
                    <mxGeometry x="20" width="80" height="20" as="geometry"/>
                </mxCell>
                <mxCell id="110" value="&lt;font color=&quot;#ff0000&quot;&gt;Îµ&lt;/font&gt;" style="rounded=0;whiteSpace=wrap;html=1;fillColor=#f5f5f5;fontColor=#333333;strokeColor=#666666;" parent="107" vertex="1">
                    <mxGeometry x="100" width="250" height="20" as="geometry"/>
                </mxCell>
                <mxCell id="115" value="" style="group;fillColor=#f5f5f5;fontColor=#333333;strokeColor=#666666;" parent="1" vertex="1" connectable="0">
                    <mxGeometry x="10" y="70" width="350" height="20" as="geometry"/>
                </mxCell>
                <mxCell id="116" value="2.5" style="rounded=0;whiteSpace=wrap;html=1;fillColor=#f5f5f5;fontColor=#333333;strokeColor=#666666;" parent="115" vertex="1">
                    <mxGeometry width="20" height="20" as="geometry"/>
                </mxCell>
                <mxCell id="117" value="&lt;font color=&quot;#3333ff&quot;&gt;&amp;lt;st-list&amp;gt;&lt;/font&gt;" style="rounded=0;whiteSpace=wrap;html=1;fillColor=#f5f5f5;fontColor=#333333;strokeColor=#666666;" parent="115" vertex="1">
                    <mxGeometry x="20" width="80" height="20" as="geometry"/>
                </mxCell>
                <mxCell id="118" value="&lt;span style=&quot;color: rgb(51 , 51 , 255)&quot;&gt;&amp;lt;state&amp;gt; &lt;/span&gt;&lt;font color=&quot;#ff0000&quot;&gt;}&lt;/font&gt;&amp;nbsp;&lt;font color=&quot;#3333ff&quot;&gt;&amp;lt;st-list&amp;gt;&lt;/font&gt;" style="rounded=0;whiteSpace=wrap;html=1;fillColor=#f5f5f5;fontColor=#333333;strokeColor=#666666;" parent="115" vertex="1">
                    <mxGeometry x="100" width="250" height="20" as="geometry"/>
                </mxCell>
                <mxCell id="121" value="" style="group;fillColor=#f5f5f5;fontColor=#333333;strokeColor=#666666;" parent="1" vertex="1" connectable="0">
                    <mxGeometry x="10" y="410" width="350" height="20" as="geometry"/>
                </mxCell>
                <mxCell id="122" value="18" style="rounded=0;whiteSpace=wrap;html=1;fillColor=#f5f5f5;fontColor=#333333;strokeColor=#666666;" parent="121" vertex="1">
                    <mxGeometry width="20" height="20" as="geometry"/>
                </mxCell>
                <mxCell id="123" value="&lt;font color=&quot;#3333ff&quot;&gt;&amp;lt;f-list&amp;gt;&lt;/font&gt;" style="rounded=0;whiteSpace=wrap;html=1;fillColor=#f5f5f5;fontColor=#333333;strokeColor=#666666;" parent="121" vertex="1">
                    <mxGeometry x="20" width="80" height="20" as="geometry"/>
                </mxCell>
                <mxCell id="124" value="&lt;span style=&quot;color: rgb(51 , 51 , 255)&quot;&gt;&amp;lt;f_state&amp;gt;&amp;nbsp;&lt;/span&gt;&lt;font color=&quot;#ff0000&quot;&gt;;&lt;/font&gt;&lt;span&gt;&amp;nbsp;&lt;/span&gt;&lt;font color=&quot;#3333ff&quot;&gt;&amp;lt;f-list&amp;gt;&lt;/font&gt;" style="rounded=0;whiteSpace=wrap;html=1;fillColor=#f5f5f5;fontColor=#333333;strokeColor=#666666;" parent="121" vertex="1">
                    <mxGeometry x="100" width="250" height="20" as="geometry"/>
                </mxCell>
                <mxCell id="134" value="" style="group;fillColor=#f5f5f5;fontColor=#333333;strokeColor=#666666;" parent="1" vertex="1" connectable="0">
                    <mxGeometry x="10" y="470" width="350" height="20" as="geometry"/>
                </mxCell>
                <mxCell id="135" value="21" style="rounded=0;whiteSpace=wrap;html=1;fillColor=#f5f5f5;fontColor=#333333;strokeColor=#666666;" parent="134" vertex="1">
                    <mxGeometry width="20" height="20" as="geometry"/>
                </mxCell>
                <mxCell id="136" value="&lt;font color=&quot;#3333ff&quot;&gt;&amp;lt;f_state&amp;gt;&lt;/font&gt;" style="rounded=0;whiteSpace=wrap;html=1;fillColor=#f5f5f5;fontColor=#333333;strokeColor=#666666;" parent="134" vertex="1">
                    <mxGeometry x="20" width="80" height="20" as="geometry"/>
                </mxCell>
                <mxCell id="137" value="&lt;font color=&quot;#ff0000&quot;&gt;return&amp;nbsp;&lt;/font&gt;&lt;span style=&quot;color: rgb(51 , 51 , 255)&quot;&gt;&amp;lt;expr&amp;gt;&lt;/span&gt;" style="rounded=0;whiteSpace=wrap;html=1;fillColor=#f5f5f5;fontColor=#333333;strokeColor=#666666;" parent="134" vertex="1">
                    <mxGeometry x="100" width="250" height="20" as="geometry"/>
                </mxCell>
                <mxCell id="138" value="" style="group;fillColor=#f5f5f5;fontColor=#333333;strokeColor=#666666;" parent="1" vertex="1" connectable="0">
                    <mxGeometry x="10" y="310" width="350" height="20" as="geometry"/>
                </mxCell>
                <mxCell id="139" value="13" style="rounded=0;whiteSpace=wrap;html=1;fillColor=#f5f5f5;fontColor=#333333;strokeColor=#666666;" parent="138" vertex="1">
                    <mxGeometry width="20" height="20" as="geometry"/>
                </mxCell>
                <mxCell id="140" value="&lt;font color=&quot;#3333ff&quot;&gt;&amp;lt;f_p-list&amp;gt;&lt;/font&gt;" style="rounded=0;whiteSpace=wrap;html=1;fillColor=#f5f5f5;fontColor=#333333;strokeColor=#666666;" parent="138" vertex="1">
                    <mxGeometry x="20" width="80" height="20" as="geometry"/>
                </mxCell>
                <mxCell id="141" value="&lt;span style=&quot;color: rgb(255 , 0 , 0)&quot;&gt;,&amp;nbsp;&lt;/span&gt;&lt;span style=&quot;color: rgb(51 , 51 , 255)&quot;&gt;&amp;lt;f_param&amp;gt;&lt;/span&gt;&lt;font color=&quot;#ff0000&quot;&gt;&amp;nbsp;&lt;/font&gt;&lt;span style=&quot;color: rgb(51 , 51 , 255)&quot;&gt;&amp;lt;f_p-list&amp;gt;&lt;/span&gt;" style="rounded=0;whiteSpace=wrap;html=1;fillColor=#f5f5f5;fontColor=#333333;strokeColor=#666666;" parent="138" vertex="1">
                    <mxGeometry x="100" width="250" height="20" as="geometry"/>
                </mxCell>
                <mxCell id="142" value="" style="group;fillColor=#f5f5f5;fontColor=#333333;strokeColor=#666666;" parent="1" vertex="1" connectable="0">
                    <mxGeometry x="10" y="350" width="350" height="20" as="geometry"/>
                </mxCell>
                <mxCell id="143" value="15" style="rounded=0;whiteSpace=wrap;html=1;fillColor=#f5f5f5;fontColor=#333333;strokeColor=#666666;" parent="142" vertex="1">
                    <mxGeometry width="20" height="20" as="geometry"/>
                </mxCell>
                <mxCell id="144" value="&lt;font color=&quot;#3333ff&quot;&gt;&amp;lt;f_p-list&amp;gt;&lt;/font&gt;" style="rounded=0;whiteSpace=wrap;html=1;fillColor=#f5f5f5;fontColor=#333333;strokeColor=#666666;" parent="142" vertex="1">
                    <mxGeometry x="20" width="80" height="20" as="geometry"/>
                </mxCell>
                <mxCell id="145" value="&lt;span style=&quot;color: rgb(255 , 0 , 0)&quot;&gt;)&lt;/span&gt;" style="rounded=0;whiteSpace=wrap;html=1;fillColor=#f5f5f5;fontColor=#333333;strokeColor=#666666;" parent="142" vertex="1">
                    <mxGeometry x="100" width="250" height="20" as="geometry"/>
                </mxCell>
                <mxCell id="146" value="" style="group;fillColor=#f5f5f5;fontColor=#333333;strokeColor=#666666;" parent="1" vertex="1" connectable="0">
                    <mxGeometry x="10" y="370" width="350" height="20" as="geometry"/>
                </mxCell>
                <mxCell id="147" value="16" style="rounded=0;whiteSpace=wrap;html=1;fillColor=#f5f5f5;fontColor=#333333;strokeColor=#666666;" parent="146" vertex="1">
                    <mxGeometry width="20" height="20" as="geometry"/>
                </mxCell>
                <mxCell id="148" value="&lt;font color=&quot;#3333ff&quot;&gt;&amp;lt;f_param&amp;gt;&lt;/font&gt;" style="rounded=0;whiteSpace=wrap;html=1;fillColor=#f5f5f5;fontColor=#333333;strokeColor=#666666;" parent="146" vertex="1">
                    <mxGeometry x="20" width="80" height="20" as="geometry"/>
                </mxCell>
                <mxCell id="149" value="&lt;font color=&quot;#ff0000&quot;&gt;type_id var_id&lt;/font&gt;" style="rounded=0;whiteSpace=wrap;html=1;fillColor=#f5f5f5;fontColor=#333333;strokeColor=#666666;" parent="146" vertex="1">
                    <mxGeometry x="100" width="250" height="20" as="geometry"/>
                </mxCell>
                <mxCell id="153" value="" style="group;fillColor=#f5f5f5;fontColor=#333333;strokeColor=#666666;" parent="1" vertex="1" connectable="0">
                    <mxGeometry x="10" y="330" width="350" height="20" as="geometry"/>
                </mxCell>
                <mxCell id="154" value="14" style="rounded=0;whiteSpace=wrap;html=1;fillColor=#f5f5f5;fontColor=#333333;strokeColor=#666666;" parent="153" vertex="1">
                    <mxGeometry width="20" height="20" as="geometry"/>
                </mxCell>
                <mxCell id="155" value="&lt;font color=&quot;#3333ff&quot;&gt;&amp;lt;f_p-list&amp;gt;&lt;/font&gt;" style="rounded=0;whiteSpace=wrap;html=1;fillColor=#f5f5f5;fontColor=#333333;strokeColor=#666666;" parent="153" vertex="1">
                    <mxGeometry x="20" width="80" height="20" as="geometry"/>
                </mxCell>
                <mxCell id="156" value="&lt;span style=&quot;color: rgb(51 , 51 , 255)&quot;&gt;&amp;lt;f_param&amp;gt;&lt;/span&gt;&lt;font color=&quot;#ff0000&quot;&gt;&amp;nbsp;&lt;/font&gt;&lt;span style=&quot;color: rgb(51 , 51 , 255)&quot;&gt;&amp;lt;f_p-list&amp;gt;&lt;/span&gt;" style="rounded=0;whiteSpace=wrap;html=1;fillColor=#f5f5f5;fontColor=#333333;strokeColor=#666666;" parent="153" vertex="1">
                    <mxGeometry x="100" width="250" height="20" as="geometry"/>
                </mxCell>
                <mxCell id="157" value="" style="group;fillColor=#f5f5f5;fontColor=#333333;strokeColor=#666666;" parent="1" vertex="1" connectable="0">
                    <mxGeometry x="10" y="590" width="350" height="20" as="geometry"/>
                </mxCell>
                <mxCell id="158" value="27" style="rounded=0;whiteSpace=wrap;html=1;fillColor=#f5f5f5;fontColor=#333333;strokeColor=#666666;" parent="157" vertex="1">
                    <mxGeometry width="20" height="20" as="geometry"/>
                </mxCell>
                <mxCell id="159" value="&lt;font color=&quot;#3333ff&quot;&gt;&amp;lt;exoras&amp;gt;&lt;/font&gt;" style="rounded=0;whiteSpace=wrap;html=1;fillColor=#f5f5f5;fontColor=#333333;strokeColor=#666666;" parent="157" vertex="1">
                    <mxGeometry x="20" width="80" height="20" as="geometry"/>
                </mxCell>
                <mxCell id="160" value="&lt;font color=&quot;#ff0000&quot;&gt;eq&amp;nbsp;&lt;/font&gt;&lt;font color=&quot;#3333ff&quot;&gt;&amp;lt;expr&amp;gt;&lt;/font&gt;" style="rounded=0;whiteSpace=wrap;html=1;fillColor=#f5f5f5;fontColor=#333333;strokeColor=#666666;" parent="157" vertex="1">
                    <mxGeometry x="100" width="250" height="20" as="geometry"/>
                </mxCell>
                <mxCell id="161" value="" style="group;fillColor=#f5f5f5;fontColor=#333333;strokeColor=#666666;" parent="1" vertex="1" connectable="0">
                    <mxGeometry x="10" y="650" width="350" height="20" as="geometry"/>
                </mxCell>
                <mxCell id="162" value="30" style="rounded=0;whiteSpace=wrap;html=1;fillColor=#f5f5f5;fontColor=#333333;strokeColor=#666666;" parent="161" vertex="1">
                    <mxGeometry width="20" height="20" as="geometry"/>
                </mxCell>
                <mxCell id="163" value="&lt;font color=&quot;#3333ff&quot;&gt;&amp;lt;exoras&amp;gt;&lt;/font&gt;" style="rounded=0;whiteSpace=wrap;html=1;fillColor=#f5f5f5;fontColor=#333333;strokeColor=#666666;" parent="161" vertex="1">
                    <mxGeometry x="20" width="80" height="20" as="geometry"/>
                </mxCell>
                <mxCell id="164" value="&lt;font color=&quot;#3333ff&quot;&gt;&amp;lt;expr1_zdolanahoru&amp;gt;&lt;/font&gt;" style="rounded=0;whiteSpace=wrap;html=1;fillColor=#f5f5f5;fontColor=#333333;strokeColor=#666666;" parent="161" vertex="1">
                    <mxGeometry x="100" width="250" height="20" as="geometry"/>
                </mxCell>
                <mxCell id="165" value="" style="group;fillColor=#f5f5f5;fontColor=#333333;strokeColor=#666666;" parent="1" vertex="1" connectable="0">
                    <mxGeometry x="10" y="510" width="350" height="20" as="geometry"/>
                </mxCell>
                <mxCell id="166" value="23" style="rounded=0;whiteSpace=wrap;html=1;fillColor=#f5f5f5;fontColor=#333333;strokeColor=#666666;" parent="165" vertex="1">
                    <mxGeometry width="20" height="20" as="geometry"/>
                </mxCell>
                <mxCell id="167" value="&lt;font color=&quot;#3333ff&quot;&gt;&amp;lt;f_state&amp;gt;&lt;/font&gt;" style="rounded=0;whiteSpace=wrap;html=1;fillColor=#f5f5f5;fontColor=#333333;strokeColor=#666666;" parent="165" vertex="1">
                    <mxGeometry x="20" width="80" height="20" as="geometry"/>
                </mxCell>
                <mxCell id="168" value="&lt;font color=&quot;#ff0000&quot;&gt;if (&amp;nbsp;&lt;/font&gt;&lt;span style=&quot;color: rgb(51 , 51 , 255)&quot;&gt;&amp;lt;expr&amp;gt;&amp;nbsp;&lt;/span&gt;&lt;span style=&quot;color: rgb(255 , 0 , 0)&quot;&gt;)&amp;nbsp;&lt;/span&gt;&lt;font color=&quot;#ff0000&quot;&gt;{&amp;nbsp;&lt;/font&gt;&lt;font color=&quot;#3333ff&quot;&gt;&amp;lt;f_list&amp;gt;&lt;/font&gt;" style="rounded=0;whiteSpace=wrap;html=1;fillColor=#f5f5f5;fontColor=#333333;strokeColor=#666666;" parent="165" vertex="1">
                    <mxGeometry x="100" width="250" height="20" as="geometry"/>
                </mxCell>
                <mxCell id="169" value="" style="group;fillColor=#f5f5f5;fontColor=#333333;strokeColor=#666666;" parent="1" vertex="1" connectable="0">
                    <mxGeometry x="10" y="430" width="350" height="20" as="geometry"/>
                </mxCell>
                <mxCell id="170" value="19" style="rounded=0;whiteSpace=wrap;html=1;fillColor=#f5f5f5;fontColor=#333333;strokeColor=#666666;" parent="169" vertex="1">
                    <mxGeometry width="20" height="20" as="geometry"/>
                </mxCell>
                <mxCell id="171" value="&lt;font color=&quot;#3333ff&quot;&gt;&amp;lt;f-list&amp;gt;&lt;/font&gt;" style="rounded=0;whiteSpace=wrap;html=1;fillColor=#f5f5f5;fontColor=#333333;strokeColor=#666666;" parent="169" vertex="1">
                    <mxGeometry x="20" width="80" height="20" as="geometry"/>
                </mxCell>
                <mxCell id="172" value="&lt;span style=&quot;color: rgb(51 , 51 , 255)&quot;&gt;&amp;lt;f_state&amp;gt; &lt;/span&gt;&lt;font color=&quot;#ff0000&quot;&gt;}&lt;/font&gt;&amp;nbsp;&lt;font color=&quot;#3333ff&quot;&gt;&amp;lt;f-list&amp;gt;&lt;/font&gt;" style="rounded=0;whiteSpace=wrap;html=1;fillColor=#f5f5f5;fontColor=#333333;strokeColor=#666666;" parent="169" vertex="1">
                    <mxGeometry x="100" width="250" height="20" as="geometry"/>
                </mxCell>
                <mxCell id="173" value="" style="group;fillColor=#f5f5f5;fontColor=#333333;strokeColor=#666666;" parent="1" vertex="1" connectable="0">
                    <mxGeometry x="10" y="530" width="350" height="20" as="geometry"/>
                </mxCell>
                <mxCell id="174" value="24" style="rounded=0;whiteSpace=wrap;html=1;fillColor=#f5f5f5;fontColor=#333333;strokeColor=#666666;" parent="173" vertex="1">
                    <mxGeometry width="20" height="20" as="geometry"/>
                </mxCell>
                <mxCell id="175" value="&lt;font color=&quot;#3333ff&quot;&gt;&amp;lt;f_state&amp;gt;&lt;/font&gt;" style="rounded=0;whiteSpace=wrap;html=1;fillColor=#f5f5f5;fontColor=#333333;strokeColor=#666666;" parent="173" vertex="1">
                    <mxGeometry x="20" width="80" height="20" as="geometry"/>
                </mxCell>
                <mxCell id="176" value="&lt;font color=&quot;#ff0000&quot;&gt;else&lt;/font&gt;&lt;span style=&quot;color: rgb(255 , 0 , 0)&quot;&gt;&amp;nbsp;&lt;/span&gt;&lt;font color=&quot;#ff0000&quot;&gt;{&amp;nbsp;&lt;/font&gt;&lt;font color=&quot;#3333ff&quot;&gt;&amp;lt;f_list&amp;gt;&lt;/font&gt;" style="rounded=0;whiteSpace=wrap;html=1;fillColor=#f5f5f5;fontColor=#333333;strokeColor=#666666;" parent="173" vertex="1">
                    <mxGeometry x="100" width="250" height="20" as="geometry"/>
                </mxCell>
                <mxCell id="177" value="" style="group;fillColor=#f5f5f5;fontColor=#333333;strokeColor=#666666;" parent="1" vertex="1" connectable="0">
                    <mxGeometry x="10" y="550" width="350" height="20" as="geometry"/>
                </mxCell>
                <mxCell id="178" value="25" style="rounded=0;whiteSpace=wrap;html=1;fillColor=#f5f5f5;fontColor=#333333;strokeColor=#666666;" parent="177" vertex="1">
                    <mxGeometry width="20" height="20" as="geometry"/>
                </mxCell>
                <mxCell id="179" value="&lt;font color=&quot;#3333ff&quot;&gt;&amp;lt;f_state&amp;gt;&lt;/font&gt;" style="rounded=0;whiteSpace=wrap;html=1;fillColor=#f5f5f5;fontColor=#333333;strokeColor=#666666;" parent="177" vertex="1">
                    <mxGeometry x="20" width="80" height="20" as="geometry"/>
                </mxCell>
                <mxCell id="180" value="&lt;span style=&quot;color: rgb(255 , 0 , 0)&quot;&gt;while&amp;nbsp;&lt;/span&gt;&lt;font color=&quot;#ff0000&quot;&gt;(&amp;nbsp;&lt;/font&gt;&lt;span style=&quot;color: rgb(51 , 51 , 255)&quot;&gt;&amp;lt;expr&amp;gt;&amp;nbsp;&lt;/span&gt;&lt;span style=&quot;color: rgb(255 , 0 , 0)&quot;&gt;)&amp;nbsp;&lt;/span&gt;&lt;font color=&quot;#ff0000&quot;&gt;{&amp;nbsp;&lt;/font&gt;&lt;font color=&quot;#3333ff&quot;&gt;&amp;lt;f_list&amp;gt;&lt;/font&gt;" style="rounded=0;whiteSpace=wrap;html=1;fillColor=#f5f5f5;fontColor=#333333;strokeColor=#666666;" parent="177" vertex="1">
                    <mxGeometry x="100" width="250" height="20" as="geometry"/>
                </mxCell>
                <mxCell id="181" value="" style="group;fillColor=#f5f5f5;fontColor=#333333;strokeColor=#666666;" parent="1" vertex="1" connectable="0">
                    <mxGeometry x="10" y="570" width="350" height="20" as="geometry"/>
                </mxCell>
                <mxCell id="182" value="26" style="rounded=0;whiteSpace=wrap;html=1;fillColor=#f5f5f5;fontColor=#333333;strokeColor=#666666;" parent="181" vertex="1">
                    <mxGeometry width="20" height="20" as="geometry"/>
                </mxCell>
                <mxCell id="183" value="&lt;font color=&quot;#3333ff&quot;&gt;&amp;lt;f_state&amp;gt;&lt;/font&gt;" style="rounded=0;whiteSpace=wrap;html=1;fillColor=#f5f5f5;fontColor=#333333;strokeColor=#666666;" parent="181" vertex="1">
                    <mxGeometry x="20" width="80" height="20" as="geometry"/>
                </mxCell>
                <mxCell id="184" value="&lt;span style=&quot;color: rgb(255 , 0 , 0)&quot;&gt;id &lt;/span&gt;&lt;span style=&quot;color: rgb(51 , 51 , 255)&quot;&gt;&amp;lt;declare&amp;gt;&lt;/span&gt;&lt;span style=&quot;color: rgb(255 , 0 , 0)&quot;&gt;&amp;nbsp;&lt;/span&gt;" style="rounded=0;whiteSpace=wrap;html=1;fillColor=#f5f5f5;fontColor=#333333;strokeColor=#666666;" parent="181" vertex="1">
                    <mxGeometry x="100" width="250" height="20" as="geometry"/>
                </mxCell>
                <mxCell id="205" value="" style="group;fillColor=#f5f5f5;fontColor=#333333;strokeColor=#666666;" parent="1" vertex="1" connectable="0">
                    <mxGeometry x="10" y="290" width="350" height="20" as="geometry"/>
                </mxCell>
                <mxCell id="206" value="12" style="rounded=0;whiteSpace=wrap;html=1;fillColor=#f5f5f5;fontColor=#333333;strokeColor=#666666;" parent="205" vertex="1">
                    <mxGeometry width="20" height="20" as="geometry"/>
                </mxCell>
                <mxCell id="207" value="&lt;font color=&quot;#3333ff&quot;&gt;&amp;lt;declare&amp;gt;&lt;/font&gt;" style="rounded=0;whiteSpace=wrap;html=1;fillColor=#f5f5f5;fontColor=#333333;strokeColor=#666666;" parent="205" vertex="1">
                    <mxGeometry x="20" width="80" height="20" as="geometry"/>
                </mxCell>
                <mxCell id="208" value="&lt;font color=&quot;#ff0000&quot;&gt;(&lt;/font&gt;&amp;nbsp;&lt;font color=&quot;#3333ff&quot;&gt;&amp;lt;f_p-list&amp;gt;&amp;nbsp;&lt;/font&gt;" style="rounded=0;whiteSpace=wrap;html=1;fillColor=#f5f5f5;fontColor=#333333;strokeColor=#666666;" parent="205" vertex="1">
                    <mxGeometry x="100" width="250" height="20" as="geometry"/>
                </mxCell>
                <mxCell id="209" value="" style="group;fillColor=#f5f5f5;fontColor=#333333;strokeColor=#666666;" parent="1" vertex="1" connectable="0">
                    <mxGeometry x="10" y="390" width="350" height="20" as="geometry"/>
                </mxCell>
                <mxCell id="210" value="17" style="rounded=0;whiteSpace=wrap;html=1;fillColor=#f5f5f5;fontColor=#333333;strokeColor=#666666;" parent="209" vertex="1">
                    <mxGeometry width="20" height="20" as="geometry"/>
                </mxCell>
                <mxCell id="211" value="&lt;font color=&quot;#3333ff&quot;&gt;&amp;lt;f_param&amp;gt;&lt;/font&gt;" style="rounded=0;whiteSpace=wrap;html=1;fillColor=#f5f5f5;fontColor=#333333;strokeColor=#666666;" parent="209" vertex="1">
                    <mxGeometry x="20" width="80" height="20" as="geometry"/>
                </mxCell>
                <mxCell id="212" value="&lt;font color=&quot;#ff0000&quot;&gt;var_id&lt;/font&gt;" style="rounded=0;whiteSpace=wrap;html=1;fillColor=#f5f5f5;fontColor=#333333;strokeColor=#666666;" parent="209" vertex="1">
                    <mxGeometry x="100" width="250" height="20" as="geometry"/>
                </mxCell>
                <mxCell id="213" value="" style="group;fillColor=#f5f5f5;fontColor=#333333;strokeColor=#666666;" parent="1" vertex="1" connectable="0">
                    <mxGeometry x="10" y="170" width="350" height="20" as="geometry"/>
                </mxCell>
                <mxCell id="214" value="6" style="rounded=0;whiteSpace=wrap;html=1;fillColor=#f5f5f5;fontColor=#333333;strokeColor=#666666;" parent="213" vertex="1">
                    <mxGeometry width="20" height="20" as="geometry"/>
                </mxCell>
                <mxCell id="215" value="&lt;font color=&quot;#3333ff&quot;&gt;&amp;lt;state&amp;gt;&lt;/font&gt;" style="rounded=0;whiteSpace=wrap;html=1;fillColor=#f5f5f5;fontColor=#333333;strokeColor=#666666;" parent="213" vertex="1">
                    <mxGeometry x="20" width="80" height="20" as="geometry"/>
                </mxCell>
                <mxCell id="216" value="&lt;font color=&quot;#ff0000&quot;&gt;var_id&amp;nbsp;&lt;/font&gt;&lt;font color=&quot;#3333ff&quot;&gt;&amp;lt;exoras&amp;gt;&lt;/font&gt;" style="rounded=0;whiteSpace=wrap;html=1;fillColor=#f5f5f5;fontColor=#333333;strokeColor=#666666;" parent="213" vertex="1">
                    <mxGeometry x="100" width="250" height="20" as="geometry"/>
                </mxCell>
                <mxCell id="217" value="" style="group;fillColor=#f5f5f5;fontColor=#333333;strokeColor=#666666;" parent="1" vertex="1" connectable="0">
                    <mxGeometry x="10" y="150" width="350" height="20" as="geometry"/>
                </mxCell>
                <mxCell id="218" value="5" style="rounded=0;whiteSpace=wrap;html=1;fillColor=#f5f5f5;fontColor=#333333;strokeColor=#666666;" parent="217" vertex="1">
                    <mxGeometry width="20" height="20" as="geometry"/>
                </mxCell>
                <mxCell id="219" value="&lt;font color=&quot;#3333ff&quot;&gt;&amp;lt;state&amp;gt;&lt;/font&gt;" style="rounded=0;whiteSpace=wrap;html=1;fillColor=#f5f5f5;fontColor=#333333;strokeColor=#666666;" parent="217" vertex="1">
                    <mxGeometry x="20" width="80" height="20" as="geometry"/>
                </mxCell>
                <mxCell id="220" value="&lt;font color=&quot;#ff0000&quot;&gt;return&amp;nbsp;&lt;/font&gt;&lt;span style=&quot;color: rgb(51 , 51 , 255)&quot;&gt;&amp;lt;expr&amp;gt;&lt;/span&gt;" style="rounded=0;whiteSpace=wrap;html=1;fillColor=#f5f5f5;fontColor=#333333;strokeColor=#666666;" parent="217" vertex="1">
                    <mxGeometry x="100" width="250" height="20" as="geometry"/>
                </mxCell>
                <mxCell id="221" value="" style="group;fillColor=#f5f5f5;fontColor=#333333;strokeColor=#666666;" parent="1" vertex="1" connectable="0">
                    <mxGeometry x="10" y="190" width="350" height="20" as="geometry"/>
                </mxCell>
                <mxCell id="222" value="7" style="rounded=0;whiteSpace=wrap;html=1;fillColor=#f5f5f5;fontColor=#333333;strokeColor=#666666;" parent="221" vertex="1">
                    <mxGeometry width="20" height="20" as="geometry"/>
                </mxCell>
                <mxCell id="223" value="&lt;font color=&quot;#3333ff&quot;&gt;&amp;lt;state&amp;gt;&lt;/font&gt;" style="rounded=0;whiteSpace=wrap;html=1;fillColor=#f5f5f5;fontColor=#333333;strokeColor=#666666;" parent="221" vertex="1">
                    <mxGeometry x="20" width="80" height="20" as="geometry"/>
                </mxCell>
                <mxCell id="224" value="&lt;font color=&quot;#ff0000&quot;&gt;if (&amp;nbsp;&lt;/font&gt;&lt;span style=&quot;color: rgb(51 , 51 , 255)&quot;&gt;&amp;lt;expr&amp;gt;&amp;nbsp;&lt;/span&gt;&lt;span style=&quot;color: rgb(255 , 0 , 0)&quot;&gt;)&amp;nbsp;&lt;/span&gt;&lt;font color=&quot;#ff0000&quot;&gt;{&amp;nbsp;&lt;/font&gt;&lt;font color=&quot;#3333ff&quot;&gt;&amp;lt;st-list&amp;gt;&lt;/font&gt;" style="rounded=0;whiteSpace=wrap;html=1;fillColor=#f5f5f5;fontColor=#333333;strokeColor=#666666;" parent="221" vertex="1">
                    <mxGeometry x="100" width="250" height="20" as="geometry"/>
                </mxCell>
                <mxCell id="225" value="" style="group;fillColor=#f5f5f5;fontColor=#333333;strokeColor=#666666;" parent="1" vertex="1" connectable="0">
                    <mxGeometry x="10" y="210" width="350" height="20" as="geometry"/>
                </mxCell>
                <mxCell id="226" value="8" style="rounded=0;whiteSpace=wrap;html=1;fillColor=#f5f5f5;fontColor=#333333;strokeColor=#666666;" parent="225" vertex="1">
                    <mxGeometry width="20" height="20" as="geometry"/>
                </mxCell>
                <mxCell id="227" value="&lt;font color=&quot;#3333ff&quot;&gt;&amp;lt;state&amp;gt;&lt;/font&gt;" style="rounded=0;whiteSpace=wrap;html=1;fillColor=#f5f5f5;fontColor=#333333;strokeColor=#666666;" parent="225" vertex="1">
                    <mxGeometry x="20" width="80" height="20" as="geometry"/>
                </mxCell>
                <mxCell id="228" value="&lt;font color=&quot;#ff0000&quot;&gt;else&lt;/font&gt;&lt;span style=&quot;color: rgb(255 , 0 , 0)&quot;&gt;&amp;nbsp;&lt;/span&gt;&lt;font color=&quot;#ff0000&quot;&gt;{ &lt;/font&gt;&lt;font color=&quot;#3333ff&quot;&gt;&amp;lt;st-list&amp;gt;&lt;/font&gt;" style="rounded=0;whiteSpace=wrap;html=1;fillColor=#f5f5f5;fontColor=#333333;strokeColor=#666666;" parent="225" vertex="1">
                    <mxGeometry x="100" width="250" height="20" as="geometry"/>
                </mxCell>
                <mxCell id="229" value="" style="group;fillColor=#f5f5f5;fontColor=#333333;strokeColor=#666666;" parent="1" vertex="1" connectable="0">
                    <mxGeometry x="10" y="230" width="350" height="20" as="geometry"/>
                </mxCell>
                <mxCell id="230" value="9" style="rounded=0;whiteSpace=wrap;html=1;fillColor=#f5f5f5;fontColor=#333333;strokeColor=#666666;" parent="229" vertex="1">
                    <mxGeometry width="20" height="20" as="geometry"/>
                </mxCell>
                <mxCell id="231" value="&lt;font color=&quot;#3333ff&quot;&gt;&amp;lt;state&amp;gt;&lt;/font&gt;" style="rounded=0;whiteSpace=wrap;html=1;fillColor=#f5f5f5;fontColor=#333333;strokeColor=#666666;" parent="229" vertex="1">
                    <mxGeometry x="20" width="80" height="20" as="geometry"/>
                </mxCell>
                <mxCell id="232" value="&lt;span style=&quot;color: rgb(255 , 0 , 0)&quot;&gt;while&amp;nbsp;&lt;/span&gt;&lt;font color=&quot;#ff0000&quot;&gt;(&amp;nbsp;&lt;/font&gt;&lt;span style=&quot;color: rgb(51 , 51 , 255)&quot;&gt;&amp;lt;expr&amp;gt;&amp;nbsp;&lt;/span&gt;&lt;span style=&quot;color: rgb(255 , 0 , 0)&quot;&gt;)&amp;nbsp;&lt;/span&gt;&lt;font color=&quot;#ff0000&quot;&gt;{&amp;nbsp;&lt;/font&gt;&lt;font color=&quot;#3333ff&quot;&gt;&amp;lt;st-list&amp;gt;&lt;/font&gt;" style="rounded=0;whiteSpace=wrap;html=1;fillColor=#f5f5f5;fontColor=#333333;strokeColor=#666666;" parent="229" vertex="1">
                    <mxGeometry x="100" width="250" height="20" as="geometry"/>
                </mxCell>
                <mxCell id="233" value="" style="group;fillColor=#f5f5f5;fontColor=#333333;strokeColor=#666666;" parent="1" vertex="1" connectable="0">
                    <mxGeometry x="10" y="250" width="350" height="20" as="geometry"/>
                </mxCell>
                <mxCell id="234" value="10" style="rounded=0;whiteSpace=wrap;html=1;fillColor=#f5f5f5;fontColor=#333333;strokeColor=#666666;" parent="233" vertex="1">
                    <mxGeometry width="20" height="20" as="geometry"/>
                </mxCell>
                <mxCell id="235" value="&lt;font color=&quot;#3333ff&quot;&gt;&amp;lt;state&amp;gt;&lt;/font&gt;" style="rounded=0;whiteSpace=wrap;html=1;fillColor=#f5f5f5;fontColor=#333333;strokeColor=#666666;" parent="233" vertex="1">
                    <mxGeometry x="20" width="80" height="20" as="geometry"/>
                </mxCell>
                <mxCell id="236" value="&lt;span style=&quot;color: rgb(255 , 0 , 0)&quot;&gt;id &lt;/span&gt;&lt;span style=&quot;color: rgb(51 , 51 , 255)&quot;&gt;&amp;lt;declare&amp;gt;&lt;/span&gt;&lt;span style=&quot;color: rgb(255 , 0 , 0)&quot;&gt;&amp;nbsp;&lt;/span&gt;" style="rounded=0;whiteSpace=wrap;html=1;fillColor=#f5f5f5;fontColor=#333333;strokeColor=#666666;" parent="233" vertex="1">
                    <mxGeometry x="100" width="250" height="20" as="geometry"/>
                </mxCell>
                <mxCell id="253" value="" style="group;fillColor=#f5f5f5;fontColor=#333333;strokeColor=#666666;" parent="1" vertex="1" connectable="0">
                    <mxGeometry x="10" y="610" width="350" height="20" as="geometry"/>
                </mxCell>
                <mxCell id="254" value="28" style="rounded=0;whiteSpace=wrap;html=1;fillColor=#f5f5f5;fontColor=#333333;strokeColor=#666666;" parent="253" vertex="1">
                    <mxGeometry width="20" height="20" as="geometry"/>
                </mxCell>
                <mxCell id="255" value="&lt;font color=&quot;#3333ff&quot;&gt;&amp;lt;expr&amp;gt;&lt;/font&gt;" style="rounded=0;whiteSpace=wrap;html=1;fillColor=#f5f5f5;fontColor=#333333;strokeColor=#666666;" parent="253" vertex="1">
                    <mxGeometry x="20" width="80" height="20" as="geometry"/>
                </mxCell>
                <mxCell id="256" value="&lt;font color=&quot;#ff0000&quot;&gt;id&amp;nbsp;&lt;/font&gt;&lt;span style=&quot;color: rgb(51 , 51 , 255)&quot;&gt;&amp;lt;declare&amp;gt;&lt;/span&gt;" style="rounded=0;whiteSpace=wrap;html=1;fillColor=#f5f5f5;fontColor=#333333;strokeColor=#666666;" parent="253" vertex="1">
                    <mxGeometry x="100" width="250" height="20" as="geometry"/>
                </mxCell>
                <mxCell id="257" value="" style="group;fillColor=#f5f5f5;fontColor=#333333;strokeColor=#666666;" parent="1" vertex="1" connectable="0">
                    <mxGeometry x="10" y="630" width="350" height="20" as="geometry"/>
                </mxCell>
                <mxCell id="258" value="29" style="rounded=0;whiteSpace=wrap;html=1;fillColor=#f5f5f5;fontColor=#333333;strokeColor=#666666;" parent="257" vertex="1">
                    <mxGeometry width="20" height="20" as="geometry"/>
                </mxCell>
                <mxCell id="259" value="&lt;font color=&quot;#3333ff&quot;&gt;&amp;lt;expr&amp;gt;&lt;/font&gt;" style="rounded=0;whiteSpace=wrap;html=1;fillColor=#f5f5f5;fontColor=#333333;strokeColor=#666666;" parent="257" vertex="1">
                    <mxGeometry x="20" width="80" height="20" as="geometry"/>
                </mxCell>
                <mxCell id="260" value="&lt;span style=&quot;color: rgb(51 , 51 , 255)&quot;&gt;&amp;lt;expr_zdolanahoru&amp;gt;&lt;/span&gt;" style="rounded=0;whiteSpace=wrap;html=1;fillColor=#f5f5f5;fontColor=#333333;strokeColor=#666666;" parent="257" vertex="1">
                    <mxGeometry x="100" width="250" height="20" as="geometry"/>
                </mxCell>
                <mxCell id="261" value="#" style="rounded=0;whiteSpace=wrap;html=1;fillColor=#f5f5f5;fontColor=#333333;strokeColor=#666666;" parent="1" vertex="1">
                    <mxGeometry x="10" y="10" width="20" height="20" as="geometry"/>
                </mxCell>
                <mxCell id="263" value="PravÃ¡ strana" style="rounded=0;whiteSpace=wrap;html=1;fillColor=#f5f5f5;fontColor=#333333;strokeColor=#666666;" parent="1" vertex="1">
                    <mxGeometry x="110" y="10" width="250" height="20" as="geometry"/>
                </mxCell>
                <mxCell id="264" value="LevÃ¡ strana" style="rounded=0;whiteSpace=wrap;html=1;fillColor=#f5f5f5;fontColor=#333333;strokeColor=#666666;" parent="1" vertex="1">
                    <mxGeometry x="30" y="10" width="80" height="20" as="geometry"/>
                </mxCell>
                <mxCell id="266" value="Predict" style="rounded=0;whiteSpace=wrap;html=1;fillColor=#f5f5f5;fontColor=#333333;strokeColor=#666666;" parent="1" vertex="1">
                    <mxGeometry x="360" y="10" width="260" height="20" as="geometry"/>
                </mxCell>
                <mxCell id="267" value="" style="group;fillColor=#f5f5f5;fontColor=#333333;strokeColor=#666666;" parent="1" vertex="1" connectable="0">
                    <mxGeometry x="10" y="30" width="610" height="20" as="geometry"/>
                </mxCell>
                <mxCell id="70" value="" style="group;fillColor=#f5f5f5;fontColor=#333333;strokeColor=#666666;" parent="267" vertex="1" connectable="0">
                    <mxGeometry width="350" height="20" as="geometry"/>
                </mxCell>
                <mxCell id="67" value="1" style="rounded=0;whiteSpace=wrap;html=1;fillColor=#f5f5f5;fontColor=#333333;strokeColor=#666666;" parent="70" vertex="1">
                    <mxGeometry width="20" height="20" as="geometry"/>
                </mxCell>
                <mxCell id="333" value="" style="edgeStyle=none;html=1;fillColor=#f5f5f5;strokeColor=#666666;" parent="70" source="68" target="69" edge="1">
                    <mxGeometry relative="1" as="geometry"/>
                </mxCell>
                <mxCell id="68" value="&lt;font color=&quot;#3333ff&quot;&gt;&amp;lt;prog&amp;gt;&lt;/font&gt;" style="rounded=0;whiteSpace=wrap;html=1;fillColor=#f5f5f5;fontColor=#333333;strokeColor=#666666;" parent="70" vertex="1">
                    <mxGeometry x="20" width="80" height="20" as="geometry"/>
                </mxCell>
                <mxCell id="69" value="&lt;font color=&quot;#ff0000&quot;&gt;begin&lt;/font&gt; &lt;font color=&quot;#3333ff&quot;&gt;&amp;lt;st-list&amp;gt;&lt;/font&gt;" style="rounded=0;whiteSpace=wrap;html=1;fillColor=#f5f5f5;fontColor=#333333;strokeColor=#666666;" parent="70" vertex="1">
                    <mxGeometry x="100" width="250" height="20" as="geometry"/>
                </mxCell>
                <mxCell id="265" value="{&amp;nbsp;&lt;span style=&quot;color: rgb(255 , 0 , 0)&quot;&gt;begin&amp;nbsp;&lt;/span&gt;}" style="rounded=0;whiteSpace=wrap;html=1;fillColor=#f5f5f5;fontColor=#333333;strokeColor=#666666;" parent="267" vertex="1">
                    <mxGeometry x="350" width="260" height="20" as="geometry"/>
                </mxCell>
                <mxCell id="268" value="{&amp;nbsp;&lt;span style=&quot;color: rgb(255 , 0 , 0)&quot;&gt;return&lt;/span&gt;,&amp;nbsp;&lt;span style=&quot;color: rgb(255 , 0 , 0)&quot;&gt;var_id&lt;/span&gt;,&amp;nbsp;&lt;span style=&quot;color: rgb(255 , 0 , 0)&quot;&gt;id&amp;nbsp;&lt;/span&gt;}" style="rounded=0;whiteSpace=wrap;html=1;fillColor=#f5f5f5;fontColor=#333333;strokeColor=#666666;" parent="1" vertex="1">
                    <mxGeometry x="360" y="50" width="260" height="20" as="geometry"/>
                </mxCell>
                <mxCell id="269" value="{&amp;nbsp;&lt;span style=&quot;color: rgb(255 , 0 , 0)&quot;&gt;function&lt;/span&gt;,&amp;nbsp;&lt;span style=&quot;color: rgb(255 , 0 , 0)&quot;&gt;if&lt;/span&gt;,&amp;nbsp;&lt;span style=&quot;color: rgb(255 , 0 , 0)&quot;&gt;else&lt;/span&gt;,&amp;nbsp;&lt;span style=&quot;color: rgb(255 , 0 , 0)&quot;&gt;while&amp;nbsp;&lt;/span&gt;}" style="rounded=0;whiteSpace=wrap;html=1;fillColor=#f5f5f5;fontColor=#333333;strokeColor=#666666;" parent="1" vertex="1">
                    <mxGeometry x="360" y="70" width="260" height="20" as="geometry"/>
                </mxCell>
                <mxCell id="270" value="{&amp;nbsp;&lt;span style=&quot;color: rgb(255 , 0 , 0)&quot;&gt;end&amp;nbsp;&lt;/span&gt;}" style="rounded=0;whiteSpace=wrap;html=1;fillColor=#f5f5f5;fontColor=#333333;strokeColor=#666666;" parent="1" vertex="1">
                    <mxGeometry x="360" y="90" width="260" height="20" as="geometry"/>
                </mxCell>
                <mxCell id="271" value="{&amp;nbsp;&lt;span style=&quot;color: rgb(255 , 0 , 0)&quot;&gt;,&lt;/span&gt;&lt;span style=&quot;color: rgb(255 , 0 , 0)&quot;&gt;&amp;nbsp;&lt;/span&gt;}" style="rounded=0;whiteSpace=wrap;html=1;fillColor=#f5f5f5;fontColor=#333333;strokeColor=#666666;" parent="1" vertex="1">
                    <mxGeometry x="360" y="310" width="260" height="20" as="geometry"/>
                </mxCell>
                <mxCell id="273" value="{&amp;nbsp;&lt;span style=&quot;color: rgb(255 , 0 , 0)&quot;&gt;type_id&lt;/span&gt;,&amp;nbsp;&lt;span style=&quot;color: rgb(255 , 0 , 0)&quot;&gt;var_id&lt;/span&gt;,&lt;span style=&quot;color: rgb(255 , 0 , 0)&quot;&gt;&amp;nbsp;&lt;/span&gt;}" style="rounded=0;whiteSpace=wrap;html=1;fillColor=#f5f5f5;fontColor=#333333;strokeColor=#666666;" parent="1" vertex="1">
                    <mxGeometry x="360" y="330" width="260" height="20" as="geometry"/>
                </mxCell>
                <mxCell id="274" value="{&amp;nbsp;&lt;span style=&quot;color: rgb(255 , 0 , 0)&quot;&gt;operator&amp;nbsp;&lt;/span&gt;}" style="rounded=0;whiteSpace=wrap;html=1;fillColor=#f5f5f5;fontColor=#333333;strokeColor=#666666;" parent="1" vertex="1">
                    <mxGeometry x="360" y="650" width="260" height="20" as="geometry"/>
                </mxCell>
                <mxCell id="275" value="{&amp;nbsp;&lt;span style=&quot;color: rgb(255 , 0 , 0)&quot;&gt;function&amp;nbsp;&lt;/span&gt;}" style="rounded=0;whiteSpace=wrap;html=1;fillColor=#f5f5f5;fontColor=#333333;strokeColor=#666666;" parent="1" vertex="1">
                    <mxGeometry x="360" y="130" width="260" height="20" as="geometry"/>
                </mxCell>
                <mxCell id="276" value="{&amp;nbsp;&lt;span style=&quot;color: rgb(255 , 0 , 0)&quot;&gt;return&amp;nbsp;&lt;/span&gt;}" style="rounded=0;whiteSpace=wrap;html=1;fillColor=#f5f5f5;fontColor=#333333;strokeColor=#666666;" parent="1" vertex="1">
                    <mxGeometry x="360" y="150" width="260" height="20" as="geometry"/>
                </mxCell>
                <mxCell id="277" value="{&amp;nbsp;&lt;span style=&quot;color: rgb(255 , 0 , 0)&quot;&gt;var_id&amp;nbsp;&lt;/span&gt;}" style="rounded=0;whiteSpace=wrap;html=1;fillColor=#f5f5f5;fontColor=#333333;strokeColor=#666666;" parent="1" vertex="1">
                    <mxGeometry x="360" y="170" width="260" height="20" as="geometry"/>
                </mxCell>
                <mxCell id="278" value="{&amp;nbsp;&lt;span style=&quot;color: rgb(255 , 0 , 0)&quot;&gt;if&amp;nbsp;&lt;/span&gt;}" style="rounded=0;whiteSpace=wrap;html=1;fillColor=#f5f5f5;fontColor=#333333;strokeColor=#666666;" parent="1" vertex="1">
                    <mxGeometry x="360" y="190" width="260" height="20" as="geometry"/>
                </mxCell>
                <mxCell id="279" value="{&amp;nbsp;&lt;span style=&quot;color: rgb(255 , 0 , 0)&quot;&gt;else&amp;nbsp;&lt;/span&gt;}" style="rounded=0;whiteSpace=wrap;html=1;fillColor=#f5f5f5;fontColor=#333333;strokeColor=#666666;" parent="1" vertex="1">
                    <mxGeometry x="360" y="210" width="260" height="20" as="geometry"/>
                </mxCell>
                <mxCell id="280" value="{&amp;nbsp;&lt;span style=&quot;color: rgb(255 , 0 , 0)&quot;&gt;while&amp;nbsp;&lt;/span&gt;}" style="rounded=0;whiteSpace=wrap;html=1;fillColor=#f5f5f5;fontColor=#333333;strokeColor=#666666;" parent="1" vertex="1">
                    <mxGeometry x="360" y="230" width="260" height="20" as="geometry"/>
                </mxCell>
                <mxCell id="281" value="{&amp;nbsp;&lt;span style=&quot;color: rgb(255 , 0 , 0)&quot;&gt;id&amp;nbsp;&lt;/span&gt;}" style="rounded=0;whiteSpace=wrap;html=1;fillColor=#f5f5f5;fontColor=#333333;strokeColor=#666666;" parent="1" vertex="1">
                    <mxGeometry x="360" y="250" width="260" height="20" as="geometry"/>
                </mxCell>
                <mxCell id="284" value="{&amp;nbsp;&lt;span style=&quot;color: rgb(255 , 0 , 0)&quot;&gt;(&lt;/span&gt;&lt;span style=&quot;color: rgb(255 , 0 , 0)&quot;&gt;&amp;nbsp;&lt;/span&gt;}" style="rounded=0;whiteSpace=wrap;html=1;fillColor=#f5f5f5;fontColor=#333333;strokeColor=#666666;" parent="1" vertex="1">
                    <mxGeometry x="360" y="270" width="260" height="20" as="geometry"/>
                </mxCell>
                <mxCell id="285" value="{&amp;nbsp;&lt;span style=&quot;color: rgb(255 , 0 , 0)&quot;&gt;(&lt;/span&gt;&lt;span style=&quot;color: rgb(255 , 0 , 0)&quot;&gt;&amp;nbsp;&lt;/span&gt;}" style="rounded=0;whiteSpace=wrap;html=1;fillColor=#f5f5f5;fontColor=#333333;strokeColor=#666666;" parent="1" vertex="1">
                    <mxGeometry x="360" y="290" width="260" height="20" as="geometry"/>
                </mxCell>
                <mxCell id="286" value="{&amp;nbsp;&lt;span style=&quot;color: rgb(255 , 0 , 0)&quot;&gt;)&lt;/span&gt;&lt;span style=&quot;color: rgb(255 , 0 , 0)&quot;&gt;&amp;nbsp;&lt;/span&gt;}" style="rounded=0;whiteSpace=wrap;html=1;fillColor=#f5f5f5;fontColor=#333333;strokeColor=#666666;" parent="1" vertex="1">
                    <mxGeometry x="360" y="350" width="260" height="20" as="geometry"/>
                </mxCell>
                <mxCell id="289" value="{&amp;nbsp;&lt;span style=&quot;color: rgb(255 , 0 , 0)&quot;&gt;type_id&lt;/span&gt;&lt;span style=&quot;color: rgb(255 , 0 , 0)&quot;&gt;&amp;nbsp;&lt;/span&gt;}" style="rounded=0;whiteSpace=wrap;html=1;fillColor=#f5f5f5;fontColor=#333333;strokeColor=#666666;" parent="1" vertex="1">
                    <mxGeometry x="360" y="370" width="260" height="20" as="geometry"/>
                </mxCell>
                <mxCell id="290" value="{&amp;nbsp;&lt;span style=&quot;color: rgb(255 , 0 , 0)&quot;&gt;var_id&lt;/span&gt;&lt;span style=&quot;color: rgb(255 , 0 , 0)&quot;&gt;&amp;nbsp;&lt;/span&gt;}" style="rounded=0;whiteSpace=wrap;html=1;fillColor=#f5f5f5;fontColor=#333333;strokeColor=#666666;" parent="1" vertex="1">
                    <mxGeometry x="360" y="390" width="260" height="20" as="geometry"/>
                </mxCell>
                <mxCell id="291" value="{&amp;nbsp;&lt;span style=&quot;color: rgb(255 , 0 , 0)&quot;&gt;}&lt;/span&gt;&lt;span style=&quot;color: rgb(255 , 0 , 0)&quot;&gt;&amp;nbsp;&lt;/span&gt;}" style="rounded=0;whiteSpace=wrap;html=1;fillColor=#f5f5f5;fontColor=#333333;strokeColor=#666666;" parent="1" vertex="1">
                    <mxGeometry x="360" y="450" width="260" height="20" as="geometry"/>
                </mxCell>
                <mxCell id="292" value="{&amp;nbsp;&lt;span style=&quot;color: rgb(255 , 0 , 0)&quot;&gt;return&lt;/span&gt;,&amp;nbsp;&lt;span style=&quot;color: rgb(255 , 0 , 0)&quot;&gt;var_id&lt;/span&gt;,&amp;nbsp;&lt;span style=&quot;color: rgb(255 , 0 , 0)&quot;&gt;id&amp;nbsp;&lt;/span&gt;}" style="rounded=0;whiteSpace=wrap;html=1;fillColor=#f5f5f5;fontColor=#333333;strokeColor=#666666;" parent="1" vertex="1">
                    <mxGeometry x="360" y="410" width="260" height="20" as="geometry"/>
                </mxCell>
                <mxCell id="293" value="{&amp;nbsp;&lt;span style=&quot;color: rgb(255 , 0 , 0)&quot;&gt;if&lt;/span&gt;,&amp;nbsp;&lt;span style=&quot;color: rgb(255 , 0 , 0)&quot;&gt;else&lt;/span&gt;,&amp;nbsp;&lt;span style=&quot;color: rgb(255 , 0 , 0)&quot;&gt;while&amp;nbsp;&lt;/span&gt;}" style="rounded=0;whiteSpace=wrap;html=1;fillColor=#f5f5f5;fontColor=#333333;strokeColor=#666666;" parent="1" vertex="1">
                    <mxGeometry x="360" y="430" width="260" height="20" as="geometry"/>
                </mxCell>
                <mxCell id="294" value="{&amp;nbsp;&lt;span style=&quot;color: rgb(255 , 0 , 0)&quot;&gt;return&amp;nbsp;&lt;/span&gt;}" style="rounded=0;whiteSpace=wrap;html=1;fillColor=#f5f5f5;fontColor=#333333;strokeColor=#666666;" parent="1" vertex="1">
                    <mxGeometry x="360" y="470" width="260" height="20" as="geometry"/>
                </mxCell>
                <mxCell id="295" value="{&amp;nbsp;&lt;span style=&quot;color: rgb(255 , 0 , 0)&quot;&gt;var_id&amp;nbsp;&lt;/span&gt;}" style="rounded=0;whiteSpace=wrap;html=1;fillColor=#f5f5f5;fontColor=#333333;strokeColor=#666666;" parent="1" vertex="1">
                    <mxGeometry x="360" y="490" width="260" height="20" as="geometry"/>
                </mxCell>
                <mxCell id="296" value="{&amp;nbsp;&lt;span style=&quot;color: rgb(255 , 0 , 0)&quot;&gt;if&amp;nbsp;&lt;/span&gt;}" style="rounded=0;whiteSpace=wrap;html=1;fillColor=#f5f5f5;fontColor=#333333;strokeColor=#666666;" parent="1" vertex="1">
                    <mxGeometry x="360" y="510" width="260" height="20" as="geometry"/>
                </mxCell>
                <mxCell id="297" value="{&amp;nbsp;&lt;span style=&quot;color: rgb(255 , 0 , 0)&quot;&gt;else&amp;nbsp;&lt;/span&gt;}" style="rounded=0;whiteSpace=wrap;html=1;fillColor=#f5f5f5;fontColor=#333333;strokeColor=#666666;" parent="1" vertex="1">
                    <mxGeometry x="360" y="530" width="260" height="20" as="geometry"/>
                </mxCell>
                <mxCell id="298" value="{&amp;nbsp;&lt;span style=&quot;color: rgb(255 , 0 , 0)&quot;&gt;while&amp;nbsp;&lt;/span&gt;}" style="rounded=0;whiteSpace=wrap;html=1;fillColor=#f5f5f5;fontColor=#333333;strokeColor=#666666;" parent="1" vertex="1">
                    <mxGeometry x="360" y="550" width="260" height="20" as="geometry"/>
                </mxCell>
                <mxCell id="299" value="{&amp;nbsp;&lt;span style=&quot;color: rgb(255 , 0 , 0)&quot;&gt;id&amp;nbsp;&lt;/span&gt;}" style="rounded=0;whiteSpace=wrap;html=1;fillColor=#f5f5f5;fontColor=#333333;strokeColor=#666666;" parent="1" vertex="1">
                    <mxGeometry x="360" y="570" width="260" height="20" as="geometry"/>
                </mxCell>
                <mxCell id="300" value="{&amp;nbsp;&lt;span style=&quot;color: rgb(255 , 0 , 0)&quot;&gt;eq&amp;nbsp;&lt;/span&gt;}" style="rounded=0;whiteSpace=wrap;html=1;fillColor=#f5f5f5;fontColor=#333333;strokeColor=#666666;" parent="1" vertex="1">
                    <mxGeometry x="360" y="590" width="260" height="20" as="geometry"/>
                </mxCell>
                <mxCell id="301" value="{&amp;nbsp;&lt;span style=&quot;color: rgb(255 , 0 , 0)&quot;&gt;id&amp;nbsp;&lt;/span&gt;}" style="rounded=0;whiteSpace=wrap;html=1;fillColor=#f5f5f5;fontColor=#333333;strokeColor=#666666;" parent="1" vertex="1">
                    <mxGeometry x="360" y="610" width="260" height="20" as="geometry"/>
                </mxCell>
                <mxCell id="302" value="{&amp;nbsp;&lt;span style=&quot;color: rgb(255 , 0 , 0)&quot;&gt;lit&lt;/span&gt;,&amp;nbsp;&lt;span style=&quot;color: rgb(255 , 0 , 0)&quot;&gt;var_id&amp;nbsp;&lt;/span&gt;}" style="rounded=0;whiteSpace=wrap;html=1;fillColor=#f5f5f5;fontColor=#333333;strokeColor=#666666;" parent="1" vertex="1">
                    <mxGeometry x="360" y="630" width="260" height="20" as="geometry"/>
                </mxCell>
                <mxCell id="303" value="" style="group;fillColor=#f5f5f5;fontColor=#333333;strokeColor=#666666;" parent="1" vertex="1" connectable="0">
                    <mxGeometry x="10" y="110" width="350" height="20" as="geometry"/>
                </mxCell>
                <mxCell id="304" value="3.5" style="rounded=0;whiteSpace=wrap;html=1;fillColor=#f5f5f5;fontColor=#333333;strokeColor=#666666;" parent="303" vertex="1">
                    <mxGeometry width="20" height="20" as="geometry"/>
                </mxCell>
                <mxCell id="305" value="&lt;span style=&quot;color: rgb(51 , 51 , 255)&quot;&gt;&amp;lt;st-list&amp;gt;&lt;/span&gt;" style="rounded=0;whiteSpace=wrap;html=1;fillColor=#f5f5f5;fontColor=#333333;strokeColor=#666666;" parent="303" vertex="1">
                    <mxGeometry x="20" width="80" height="20" as="geometry"/>
                </mxCell>
                <mxCell id="306" value="&lt;font color=&quot;#ff0000&quot;&gt;$&lt;/font&gt;" style="rounded=0;whiteSpace=wrap;html=1;fillColor=#f5f5f5;fontColor=#333333;strokeColor=#666666;" parent="303" vertex="1">
                    <mxGeometry x="100" width="250" height="20" as="geometry"/>
                </mxCell>
                <mxCell id="307" value="{&amp;nbsp;&lt;span style=&quot;color: rgb(255 , 0 , 0)&quot;&gt;$&amp;nbsp;&lt;/span&gt;}" style="rounded=0;whiteSpace=wrap;html=1;fillColor=#f5f5f5;fontColor=#333333;strokeColor=#666666;" parent="1" vertex="1">
                    <mxGeometry x="360" y="110" width="260" height="20" as="geometry"/>
                </mxCell>
                <mxCell id="309" value="&lt;font color=&quot;#3333ff&quot;&gt;&amp;lt;prog&amp;gt;&lt;/font&gt;" style="rounded=0;whiteSpace=wrap;html=1;fillColor=#f5f5f5;fontColor=#333333;strokeColor=#666666;" parent="1" vertex="1">
                    <mxGeometry x="10" y="860" width="80" height="20" as="geometry"/>
                </mxCell>
                <mxCell id="310" value="&lt;font color=&quot;#3333ff&quot;&gt;&amp;lt;st-list&amp;gt;&lt;/font&gt;" style="rounded=0;whiteSpace=wrap;html=1;fillColor=#f5f5f5;fontColor=#333333;strokeColor=#666666;" parent="1" vertex="1">
                    <mxGeometry x="10" y="880" width="80" height="20" as="geometry"/>
                </mxCell>
                <mxCell id="312" value="&lt;font color=&quot;#3333ff&quot;&gt;&amp;lt;state&amp;gt;&lt;/font&gt;" style="rounded=0;whiteSpace=wrap;html=1;fillColor=#f5f5f5;fontColor=#333333;strokeColor=#666666;" parent="1" vertex="1">
                    <mxGeometry x="10" y="900" width="80" height="20" as="geometry"/>
                </mxCell>
                <mxCell id="313" value="&lt;font color=&quot;#3333ff&quot;&gt;&amp;lt;declare&amp;gt;&lt;/font&gt;" style="rounded=0;whiteSpace=wrap;html=1;fillColor=#f5f5f5;fontColor=#333333;strokeColor=#666666;" parent="1" vertex="1">
                    <mxGeometry x="10" y="920" width="80" height="20" as="geometry"/>
                </mxCell>
                <mxCell id="314" value="&lt;font color=&quot;#3333ff&quot;&gt;&amp;lt;f_state&amp;gt;&lt;/font&gt;" style="rounded=0;whiteSpace=wrap;html=1;fillColor=#f5f5f5;fontColor=#333333;strokeColor=#666666;" parent="1" vertex="1">
                    <mxGeometry x="10" y="1020" width="80" height="20" as="geometry"/>
                </mxCell>
                <mxCell id="317" value="&lt;font color=&quot;#3333ff&quot;&gt;&amp;lt;f-list&amp;gt;&lt;/font&gt;" style="rounded=0;whiteSpace=wrap;html=1;fillColor=#f5f5f5;fontColor=#333333;strokeColor=#666666;" parent="1" vertex="1">
                    <mxGeometry x="10" y="1000" width="80" height="20" as="geometry"/>
                </mxCell>
                <mxCell id="318" value="&lt;font color=&quot;#3333ff&quot;&gt;&amp;lt;define&amp;gt;&lt;/font&gt;" style="rounded=0;whiteSpace=wrap;html=1;fillColor=#f5f5f5;fontColor=#333333;strokeColor=#666666;" parent="1" vertex="1">
                    <mxGeometry x="10" y="940" width="80" height="20" as="geometry"/>
                </mxCell>
                <mxCell id="319" value="&lt;font color=&quot;#3333ff&quot;&gt;&amp;lt;f-list&amp;gt;&lt;/font&gt;" style="rounded=0;whiteSpace=wrap;html=1;fillColor=#f5f5f5;fontColor=#333333;strokeColor=#666666;" parent="1" vertex="1">
                    <mxGeometry x="10" y="980" width="80" height="20" as="geometry"/>
                </mxCell>
                <mxCell id="320" value="&lt;font color=&quot;#3333ff&quot;&gt;&amp;lt;f_param&amp;gt;&lt;/font&gt;" style="rounded=0;whiteSpace=wrap;html=1;fillColor=#f5f5f5;fontColor=#333333;strokeColor=#666666;" parent="1" vertex="1">
                    <mxGeometry x="10" y="960" width="80" height="20" as="geometry"/>
                </mxCell>
                <mxCell id="321" value="&lt;font color=&quot;#3333ff&quot;&gt;&amp;lt;exoras&amp;gt;&lt;/font&gt;" style="rounded=0;whiteSpace=wrap;html=1;fillColor=#f5f5f5;fontColor=#333333;strokeColor=#666666;" parent="1" vertex="1">
                    <mxGeometry x="10" y="1040" width="80" height="20" as="geometry"/>
                </mxCell>
                <mxCell id="322" value="&lt;font color=&quot;#3333ff&quot;&gt;&amp;lt;expr&amp;gt;&lt;/font&gt;" style="rounded=0;whiteSpace=wrap;html=1;fillColor=#f5f5f5;fontColor=#333333;strokeColor=#666666;" parent="1" vertex="1">
                    <mxGeometry x="10" y="1060" width="80" height="20" as="geometry"/>
                </mxCell>
                <mxCell id="323" value="" style="rounded=0;whiteSpace=wrap;html=1;fillColor=#f5f5f5;fontColor=#333333;strokeColor=#666666;" parent="1" vertex="1">
                    <mxGeometry x="10" y="840" width="80" height="20" as="geometry"/>
                </mxCell>
                <mxCell id="324" value="&lt;span style=&quot;color: rgb(255 , 0 , 0)&quot;&gt;begin&lt;/span&gt;" style="rounded=0;whiteSpace=wrap;html=1;fillColor=#f5f5f5;fontColor=#333333;strokeColor=#666666;" parent="1" vertex="1">
                    <mxGeometry x="90" y="840" width="40" height="20" as="geometry"/>
                </mxCell>
                <mxCell id="325" value="&lt;span style=&quot;color: rgb(255 , 0 , 0)&quot;&gt;return&lt;/span&gt;" style="rounded=0;whiteSpace=wrap;html=1;fillColor=#f5f5f5;fontColor=#333333;strokeColor=#666666;" parent="1" vertex="1">
                    <mxGeometry x="130" y="840" width="40" height="20" as="geometry"/>
                </mxCell>
                <mxCell id="326" value="&lt;span style=&quot;color: rgb(255 , 0 , 0)&quot;&gt;else&lt;/span&gt;" style="rounded=0;whiteSpace=wrap;html=1;fillColor=#f5f5f5;fontColor=#333333;strokeColor=#666666;" parent="1" vertex="1">
                    <mxGeometry x="170" y="840" width="30" height="20" as="geometry"/>
                </mxCell>
                <mxCell id="327" value="&lt;span style=&quot;color: rgb(255 , 0 , 0)&quot;&gt;function&lt;/span&gt;" style="rounded=0;whiteSpace=wrap;html=1;fillColor=#f5f5f5;fontColor=#333333;strokeColor=#666666;" parent="1" vertex="1">
                    <mxGeometry x="280" y="840" width="50" height="20" as="geometry"/>
                </mxCell>
                <mxCell id="328" value="&lt;span style=&quot;color: rgb(255 , 0 , 0)&quot;&gt;var_id&lt;/span&gt;" style="rounded=0;whiteSpace=wrap;html=1;fillColor=#f5f5f5;fontColor=#333333;strokeColor=#666666;" parent="1" vertex="1">
                    <mxGeometry x="240" y="840" width="40" height="20" as="geometry"/>
                </mxCell>
                <mxCell id="329" value="&lt;span style=&quot;color: rgb(255 , 0 , 0)&quot;&gt;id&lt;/span&gt;" style="rounded=0;whiteSpace=wrap;html=1;fillColor=#f5f5f5;fontColor=#333333;strokeColor=#666666;" parent="1" vertex="1">
                    <mxGeometry x="200" y="840" width="20" height="20" as="geometry"/>
                </mxCell>
                <mxCell id="330" value="&lt;span style=&quot;color: rgb(255 , 0 , 0)&quot;&gt;if&lt;/span&gt;" style="rounded=0;whiteSpace=wrap;html=1;fillColor=#f5f5f5;fontColor=#333333;strokeColor=#666666;" parent="1" vertex="1">
                    <mxGeometry x="220" y="840" width="20" height="20" as="geometry"/>
                </mxCell>
                <mxCell id="334" value="&lt;span style=&quot;color: rgb(255 , 0 , 0)&quot;&gt;while&lt;/span&gt;" style="rounded=0;whiteSpace=wrap;html=1;fillColor=#f5f5f5;fontColor=#333333;strokeColor=#666666;" parent="1" vertex="1">
                    <mxGeometry x="330" y="840" width="40" height="20" as="geometry"/>
                </mxCell>
                <mxCell id="335" value="&lt;span style=&quot;color: rgb(255 , 0 , 0)&quot;&gt;$&lt;/span&gt;" style="rounded=0;whiteSpace=wrap;html=1;fillColor=#f5f5f5;fontColor=#333333;strokeColor=#666666;" parent="1" vertex="1">
                    <mxGeometry x="400" y="840" width="20" height="20" as="geometry"/>
                </mxCell>
                <mxCell id="336" value="&lt;span style=&quot;color: rgb(255 , 0 , 0)&quot;&gt;end&lt;/span&gt;" style="rounded=0;whiteSpace=wrap;html=1;fillColor=#f5f5f5;fontColor=#333333;strokeColor=#666666;" parent="1" vertex="1">
                    <mxGeometry x="370" y="840" width="30" height="20" as="geometry"/>
                </mxCell>
                <mxCell id="337" value="&lt;span style=&quot;color: rgb(255 , 0 , 0)&quot;&gt;(&lt;/span&gt;" style="rounded=0;whiteSpace=wrap;html=1;fillColor=#f5f5f5;fontColor=#333333;strokeColor=#666666;" parent="1" vertex="1">
                    <mxGeometry x="420" y="840" width="20" height="20" as="geometry"/>
                </mxCell>
                <mxCell id="338" value="&lt;span style=&quot;color: rgb(255 , 0 , 0)&quot;&gt;,&lt;/span&gt;" style="rounded=0;whiteSpace=wrap;html=1;fillColor=#f5f5f5;fontColor=#333333;strokeColor=#666666;" parent="1" vertex="1">
                    <mxGeometry x="440" y="840" width="20" height="20" as="geometry"/>
                </mxCell>
                <mxCell id="339" value="&lt;span style=&quot;color: rgb(255 , 0 , 0)&quot;&gt;}&lt;/span&gt;" style="rounded=0;whiteSpace=wrap;html=1;fillColor=#f5f5f5;fontColor=#333333;strokeColor=#666666;" parent="1" vertex="1">
                    <mxGeometry x="530" y="840" width="20" height="20" as="geometry"/>
                </mxCell>
                <mxCell id="340" value="&lt;span style=&quot;color: rgb(255 , 0 , 0)&quot;&gt;)&lt;/span&gt;" style="rounded=0;whiteSpace=wrap;html=1;fillColor=#f5f5f5;fontColor=#333333;strokeColor=#666666;" parent="1" vertex="1">
                    <mxGeometry x="510" y="840" width="20" height="20" as="geometry"/>
                </mxCell>
                <mxCell id="341" value="&lt;span style=&quot;color: rgb(255 , 0 , 0)&quot;&gt;type_id&lt;/span&gt;" style="rounded=0;whiteSpace=wrap;html=1;fillColor=#f5f5f5;fontColor=#333333;strokeColor=#666666;" parent="1" vertex="1">
                    <mxGeometry x="460" y="840" width="50" height="20" as="geometry"/>
                </mxCell>
                <mxCell id="346" value="&lt;span style=&quot;color: rgb(255 , 0 , 0)&quot;&gt;eq&lt;/span&gt;" style="rounded=0;whiteSpace=wrap;html=1;fillColor=#f5f5f5;fontColor=#333333;strokeColor=#666666;" parent="1" vertex="1">
                    <mxGeometry x="550" y="840" width="20" height="20" as="geometry"/>
                </mxCell>
                <mxCell id="347" value="&lt;span style=&quot;color: rgb(255 , 0 , 0)&quot;&gt;lit&lt;/span&gt;" style="rounded=0;whiteSpace=wrap;html=1;fillColor=#f5f5f5;fontColor=#333333;strokeColor=#666666;" parent="1" vertex="1">
                    <mxGeometry x="570" y="840" width="20" height="20" as="geometry"/>
                </mxCell>
                <mxCell id="348" value="&lt;span style=&quot;color: rgb(255 , 0 , 0)&quot;&gt;operator&lt;/span&gt;" style="rounded=0;whiteSpace=wrap;html=1;fillColor=#f5f5f5;fontColor=#333333;strokeColor=#666666;" parent="1" vertex="1">
                    <mxGeometry x="590" y="840" width="50" height="20" as="geometry"/>
                </mxCell>
                <mxCell id="350" value="&lt;span style=&quot;color: rgb(255 , 0 , 0)&quot;&gt;1&lt;/span&gt;" style="rounded=0;whiteSpace=wrap;html=1;fillColor=#f5f5f5;fontColor=#333333;strokeColor=#666666;" parent="1" vertex="1">
                    <mxGeometry x="90" y="860" width="40" height="20" as="geometry"/>
                </mxCell>
                <mxCell id="351" value="&lt;span style=&quot;color: rgb(255 , 0 , 0)&quot;&gt;2&lt;/span&gt;" style="rounded=0;whiteSpace=wrap;html=1;fillColor=#f5f5f5;fontColor=#333333;strokeColor=#666666;" parent="1" vertex="1">
                    <mxGeometry x="130" y="880" width="40" height="20" as="geometry"/>
                </mxCell>
                <mxCell id="352" value="&lt;span style=&quot;color: rgb(255 , 0 , 0)&quot;&gt;2.5&lt;/span&gt;" style="rounded=0;whiteSpace=wrap;html=1;fillColor=#f5f5f5;fontColor=#333333;strokeColor=#666666;" parent="1" vertex="1">
                    <mxGeometry x="170" y="880" width="30" height="20" as="geometry"/>
                </mxCell>
                <mxCell id="353" value="&lt;span style=&quot;color: rgb(255 , 0 , 0)&quot;&gt;2&lt;/span&gt;" style="rounded=0;whiteSpace=wrap;html=1;fillColor=#f5f5f5;fontColor=#333333;strokeColor=#666666;" parent="1" vertex="1">
                    <mxGeometry x="200" y="880" width="20" height="20" as="geometry"/>
                </mxCell>
                <mxCell id="354" value="&lt;span style=&quot;color: rgb(255 , 0 , 0)&quot;&gt;2&lt;/span&gt;" style="rounded=0;whiteSpace=wrap;html=1;fillColor=#f5f5f5;fontColor=#333333;strokeColor=#666666;" parent="1" vertex="1">
                    <mxGeometry x="240" y="880" width="40" height="20" as="geometry"/>
                </mxCell>
                <mxCell id="355" value="&lt;font color=&quot;#ff0000&quot;&gt;4&lt;/font&gt;" style="rounded=0;whiteSpace=wrap;html=1;fillColor=#f5f5f5;fontColor=#333333;strokeColor=#666666;" parent="1" vertex="1">
                    <mxGeometry x="280" y="900" width="50" height="20" as="geometry"/>
                </mxCell>
                <mxCell id="356" value="&lt;span style=&quot;color: rgb(255 , 0 , 0)&quot;&gt;10&lt;/span&gt;" style="rounded=0;whiteSpace=wrap;html=1;fillColor=#f5f5f5;fontColor=#333333;strokeColor=#666666;" parent="1" vertex="1">
                    <mxGeometry x="200" y="900" width="20" height="20" as="geometry"/>
                </mxCell>
                <mxCell id="357" value="&lt;span style=&quot;color: rgb(255 , 0 , 0)&quot;&gt;begin&lt;/span&gt;" style="rounded=0;whiteSpace=wrap;html=1;fillColor=#f5f5f5;fontColor=#333333;strokeColor=#666666;" parent="1" vertex="1">
                    <mxGeometry x="90" y="1000" width="40" height="20" as="geometry"/>
                </mxCell>
                <mxCell id="358" value="&lt;span style=&quot;color: rgb(255 , 0 , 0)&quot;&gt;begin&lt;/span&gt;" style="rounded=0;whiteSpace=wrap;html=1;fillColor=#f5f5f5;fontColor=#333333;strokeColor=#666666;" parent="1" vertex="1">
                    <mxGeometry x="90" y="1020" width="40" height="20" as="geometry"/>
                </mxCell>
                <mxCell id="359" value="&lt;span style=&quot;color: rgb(255 , 0 , 0)&quot;&gt;begin&lt;/span&gt;" style="rounded=0;whiteSpace=wrap;html=1;fillColor=#f5f5f5;fontColor=#333333;strokeColor=#666666;" parent="1" vertex="1">
                    <mxGeometry x="90" y="1040" width="40" height="20" as="geometry"/>
                </mxCell>
                <mxCell id="360" value="&lt;span style=&quot;color: rgb(255 , 0 , 0)&quot;&gt;begin&lt;/span&gt;" style="rounded=0;whiteSpace=wrap;html=1;fillColor=#f5f5f5;fontColor=#333333;strokeColor=#666666;" parent="1" vertex="1">
                    <mxGeometry x="90" y="1060" width="40" height="20" as="geometry"/>
                </mxCell>
                <mxCell id="362" value="&lt;span style=&quot;color: rgb(255 , 0 , 0)&quot;&gt;2.5&lt;/span&gt;" style="rounded=0;whiteSpace=wrap;html=1;fillColor=#f5f5f5;fontColor=#333333;strokeColor=#666666;" parent="1" vertex="1">
                    <mxGeometry x="220" y="880" width="20" height="20" as="geometry"/>
                </mxCell>
                <mxCell id="363" value="&lt;span style=&quot;color: rgb(255 , 0 , 0)&quot;&gt;2.5&lt;/span&gt;" style="rounded=0;whiteSpace=wrap;html=1;fillColor=#f5f5f5;fontColor=#333333;strokeColor=#666666;" parent="1" vertex="1">
                    <mxGeometry x="330" y="880" width="40" height="20" as="geometry"/>
                </mxCell>
                <mxCell id="364" value="&lt;span style=&quot;color: rgb(255 , 0 , 0)&quot;&gt;2.5&lt;/span&gt;" style="rounded=0;whiteSpace=wrap;html=1;fillColor=#f5f5f5;fontColor=#333333;strokeColor=#666666;" parent="1" vertex="1">
                    <mxGeometry x="280" y="880" width="50" height="20" as="geometry"/>
                </mxCell>
                <mxCell id="366" value="&lt;span style=&quot;color: rgb(255 , 0 , 0)&quot;&gt;3&lt;/span&gt;" style="rounded=0;whiteSpace=wrap;html=1;fillColor=#f5f5f5;fontColor=#333333;strokeColor=#666666;" parent="1" vertex="1">
                    <mxGeometry x="370" y="880" width="30" height="20" as="geometry"/>
                </mxCell>
                <mxCell id="367" value="&lt;font color=&quot;#ff0000&quot;&gt;3.5&lt;/font&gt;" style="rounded=0;whiteSpace=wrap;html=1;fillColor=#f5f5f5;fontColor=#333333;strokeColor=#666666;" parent="1" vertex="1">
                    <mxGeometry x="400" y="880" width="20" height="20" as="geometry"/>
                </mxCell>
                <mxCell id="369" value="&lt;font color=&quot;#ff0000&quot;&gt;5&lt;/font&gt;" style="rounded=0;whiteSpace=wrap;html=1;fillColor=#f5f5f5;fontColor=#333333;strokeColor=#666666;" parent="1" vertex="1">
                    <mxGeometry x="130" y="900" width="40" height="20" as="geometry"/>
                </mxCell>
                <mxCell id="370" value="&lt;span style=&quot;color: rgb(255 , 0 , 0)&quot;&gt;8&lt;/span&gt;" style="rounded=0;whiteSpace=wrap;html=1;fillColor=#f5f5f5;fontColor=#333333;strokeColor=#666666;" parent="1" vertex="1">
                    <mxGeometry x="170" y="900" width="30" height="20" as="geometry"/>
                </mxCell>
                <mxCell id="371" value="&lt;span style=&quot;color: rgb(255 , 0 , 0)&quot;&gt;7&lt;/span&gt;" style="rounded=0;whiteSpace=wrap;html=1;fillColor=#f5f5f5;fontColor=#333333;strokeColor=#666666;" parent="1" vertex="1">
                    <mxGeometry x="220" y="900" width="20" height="20" as="geometry"/>
                </mxCell>
                <mxCell id="372" value="" style="group;fillColor=#f5f5f5;fontColor=#333333;strokeColor=#666666;" parent="1" vertex="1" connectable="0">
                    <mxGeometry x="10" y="670" width="350" height="20" as="geometry"/>
                </mxCell>
                <mxCell id="373" value="30" style="rounded=0;whiteSpace=wrap;html=1;fillColor=#f5f5f5;fontColor=#333333;strokeColor=#666666;" parent="372" vertex="1">
                    <mxGeometry width="20" height="20" as="geometry"/>
                </mxCell>
                <mxCell id="374" value="&lt;font color=&quot;#3333ff&quot;&gt;&amp;lt;exoras&amp;gt;&lt;/font&gt;" style="rounded=0;whiteSpace=wrap;html=1;fillColor=#f5f5f5;fontColor=#333333;strokeColor=#666666;" parent="372" vertex="1">
                    <mxGeometry x="20" width="80" height="20" as="geometry"/>
                </mxCell>
                <mxCell id="375" value="&lt;font color=&quot;#3333ff&quot;&gt;&amp;lt;expr1_zdolanahoru&amp;gt;&lt;/font&gt;" style="rounded=0;whiteSpace=wrap;html=1;fillColor=#f5f5f5;fontColor=#333333;strokeColor=#666666;" parent="372" vertex="1">
                    <mxGeometry x="100" width="250" height="20" as="geometry"/>
                </mxCell>
                <mxCell id="376" value="{&amp;nbsp;&lt;span style=&quot;color: rgb(255 , 0 , 0)&quot;&gt;operator&amp;nbsp;&lt;/span&gt;}" style="rounded=0;whiteSpace=wrap;html=1;fillColor=#f5f5f5;fontColor=#333333;strokeColor=#666666;" parent="1" vertex="1">
                    <mxGeometry x="360" y="670" width="260" height="20" as="geometry"/>
                </mxCell>
                <mxCell id="377" value="" style="group;fillColor=#f5f5f5;fontColor=#333333;strokeColor=#666666;" parent="1" vertex="1" connectable="0">
                    <mxGeometry x="10" y="690" width="350" height="20" as="geometry"/>
                </mxCell>
                <mxCell id="378" value="30" style="rounded=0;whiteSpace=wrap;html=1;fillColor=#f5f5f5;fontColor=#333333;strokeColor=#666666;" parent="377" vertex="1">
                    <mxGeometry width="20" height="20" as="geometry"/>
                </mxCell>
                <mxCell id="379" value="&lt;font color=&quot;#3333ff&quot;&gt;&amp;lt;exoras&amp;gt;&lt;/font&gt;" style="rounded=0;whiteSpace=wrap;html=1;fillColor=#f5f5f5;fontColor=#333333;strokeColor=#666666;" parent="377" vertex="1">
                    <mxGeometry x="20" width="80" height="20" as="geometry"/>
                </mxCell>
                <mxCell id="380" value="&lt;font color=&quot;#3333ff&quot;&gt;&amp;lt;expr1_zdolanahoru&amp;gt;&lt;/font&gt;" style="rounded=0;whiteSpace=wrap;html=1;fillColor=#f5f5f5;fontColor=#333333;strokeColor=#666666;" parent="377" vertex="1">
                    <mxGeometry x="100" width="250" height="20" as="geometry"/>
                </mxCell>
                <mxCell id="381" value="{&amp;nbsp;&lt;span style=&quot;color: rgb(255 , 0 , 0)&quot;&gt;operator&amp;nbsp;&lt;/span&gt;}" style="rounded=0;whiteSpace=wrap;html=1;fillColor=#f5f5f5;fontColor=#333333;strokeColor=#666666;" parent="1" vertex="1">
                    <mxGeometry x="360" y="690" width="260" height="20" as="geometry"/>
                </mxCell>
                <mxCell id="382" value="" style="group;fillColor=#f5f5f5;fontColor=#333333;strokeColor=#666666;" parent="1" vertex="1" connectable="0">
                    <mxGeometry x="10" y="710" width="350" height="20" as="geometry"/>
                </mxCell>
                <mxCell id="383" value="30" style="rounded=0;whiteSpace=wrap;html=1;fillColor=#f5f5f5;fontColor=#333333;strokeColor=#666666;" parent="382" vertex="1">
                    <mxGeometry width="20" height="20" as="geometry"/>
                </mxCell>
                <mxCell id="384" value="&lt;font color=&quot;#3333ff&quot;&gt;&amp;lt;exoras&amp;gt;&lt;/font&gt;" style="rounded=0;whiteSpace=wrap;html=1;fillColor=#f5f5f5;fontColor=#333333;strokeColor=#666666;" parent="382" vertex="1">
                    <mxGeometry x="20" width="80" height="20" as="geometry"/>
                </mxCell>
                <mxCell id="385" value="&lt;font color=&quot;#3333ff&quot;&gt;&amp;lt;expr1_zdolanahoru&amp;gt;&lt;/font&gt;" style="rounded=0;whiteSpace=wrap;html=1;fillColor=#f5f5f5;fontColor=#333333;strokeColor=#666666;" parent="382" vertex="1">
                    <mxGeometry x="100" width="250" height="20" as="geometry"/>
                </mxCell>
                <mxCell id="386" value="{&amp;nbsp;&lt;span style=&quot;color: rgb(255 , 0 , 0)&quot;&gt;operator&amp;nbsp;&lt;/span&gt;}" style="rounded=0;whiteSpace=wrap;html=1;fillColor=#f5f5f5;fontColor=#333333;strokeColor=#666666;" parent="1" vertex="1">
                    <mxGeometry x="360" y="710" width="260" height="20" as="geometry"/>
                </mxCell>
                <mxCell id="387" value="" style="group;fillColor=#f5f5f5;fontColor=#333333;strokeColor=#666666;" parent="1" vertex="1" connectable="0">
                    <mxGeometry x="10" y="730" width="350" height="20" as="geometry"/>
                </mxCell>
                <mxCell id="388" value="30" style="rounded=0;whiteSpace=wrap;html=1;fillColor=#f5f5f5;fontColor=#333333;strokeColor=#666666;" parent="387" vertex="1">
                    <mxGeometry width="20" height="20" as="geometry"/>
                </mxCell>
                <mxCell id="389" value="&lt;font color=&quot;#3333ff&quot;&gt;&amp;lt;exoras&amp;gt;&lt;/font&gt;" style="rounded=0;whiteSpace=wrap;html=1;fillColor=#f5f5f5;fontColor=#333333;strokeColor=#666666;" parent="387" vertex="1">
                    <mxGeometry x="20" width="80" height="20" as="geometry"/>
                </mxCell>
                <mxCell id="390" value="&lt;font color=&quot;#3333ff&quot;&gt;&amp;lt;expr1_zdolanahoru&amp;gt;&lt;/font&gt;" style="rounded=0;whiteSpace=wrap;html=1;fillColor=#f5f5f5;fontColor=#333333;strokeColor=#666666;" parent="387" vertex="1">
                    <mxGeometry x="100" width="250" height="20" as="geometry"/>
                </mxCell>
                <mxCell id="391" value="{&amp;nbsp;&lt;span style=&quot;color: rgb(255 , 0 , 0)&quot;&gt;operator&amp;nbsp;&lt;/span&gt;}" style="rounded=0;whiteSpace=wrap;html=1;fillColor=#f5f5f5;fontColor=#333333;strokeColor=#666666;" parent="1" vertex="1">
                    <mxGeometry x="360" y="730" width="260" height="20" as="geometry"/>
                </mxCell>
                <mxCell id="397" value="&lt;font color=&quot;#ffb366&quot;&gt;*&lt;/font&gt;" style="rounded=0;whiteSpace=wrap;html=1;fillColor=#f5f5f5;fontColor=#333333;strokeColor=#666666;" parent="1" vertex="1">
                    <mxGeometry x="720" y="50" width="20" height="20" as="geometry"/>
                </mxCell>
                <mxCell id="414" value="" style="group;fillColor=#f5f5f5;fontColor=#333333;strokeColor=#666666;" parent="1" vertex="1" connectable="0">
                    <mxGeometry x="740" y="30" width="300" height="20" as="geometry"/>
                </mxCell>
                <mxCell id="400" value="&lt;span style=&quot;color: rgb(255 , 0 , 0)&quot;&gt;*&lt;/span&gt;" style="rounded=0;whiteSpace=wrap;html=1;fillColor=#f5f5f5;fontColor=#333333;strokeColor=#666666;" parent="414" vertex="1">
                    <mxGeometry width="20" height="20" as="geometry"/>
                </mxCell>
                <mxCell id="401" value="&lt;font color=&quot;#ff0000&quot;&gt;/&lt;/font&gt;" style="rounded=0;whiteSpace=wrap;html=1;fillColor=#f5f5f5;fontColor=#333333;strokeColor=#666666;" parent="414" vertex="1">
                    <mxGeometry x="20" width="20" height="20" as="geometry"/>
                </mxCell>
                <mxCell id="402" value="&lt;span style=&quot;color: rgb(255 , 0 , 0)&quot;&gt;+&lt;/span&gt;" style="rounded=0;whiteSpace=wrap;html=1;fillColor=#f5f5f5;fontColor=#333333;strokeColor=#666666;" parent="414" vertex="1">
                    <mxGeometry x="40" width="20" height="20" as="geometry"/>
                </mxCell>
                <mxCell id="403" value="&lt;span style=&quot;color: rgb(255 , 0 , 0)&quot;&gt;.&lt;/span&gt;" style="rounded=0;whiteSpace=wrap;html=1;direction=south;fillColor=#f5f5f5;fontColor=#333333;strokeColor=#666666;" parent="414" vertex="1">
                    <mxGeometry x="80" width="20" height="20" as="geometry"/>
                </mxCell>
                <mxCell id="404" value="&lt;span style=&quot;color: rgb(255 , 0 , 0)&quot;&gt;-&lt;/span&gt;" style="rounded=0;whiteSpace=wrap;html=1;fillColor=#f5f5f5;fontColor=#333333;strokeColor=#666666;" parent="414" vertex="1">
                    <mxGeometry x="60" width="20" height="20" as="geometry"/>
                </mxCell>
                <mxCell id="405" value="&lt;span style=&quot;color: rgb(255 , 0 , 0)&quot;&gt;&amp;lt;&lt;/span&gt;" style="rounded=0;whiteSpace=wrap;html=1;fillColor=#f5f5f5;fontColor=#333333;strokeColor=#666666;" parent="414" vertex="1">
                    <mxGeometry x="100" width="20" height="20" as="geometry"/>
                </mxCell>
                <mxCell id="406" value="&lt;font color=&quot;#ff0000&quot;&gt;&amp;gt;&lt;/font&gt;" style="rounded=0;whiteSpace=wrap;html=1;fillColor=#f5f5f5;fontColor=#333333;strokeColor=#666666;" parent="414" vertex="1">
                    <mxGeometry x="120" width="20" height="20" as="geometry"/>
                </mxCell>
                <mxCell id="407" value="&lt;span style=&quot;color: rgb(255 , 0 , 0)&quot;&gt;&amp;lt;=&lt;/span&gt;" style="rounded=0;whiteSpace=wrap;html=1;fillColor=#f5f5f5;fontColor=#333333;strokeColor=#666666;" parent="414" vertex="1">
                    <mxGeometry x="140" width="20" height="20" as="geometry"/>
                </mxCell>
                <mxCell id="408" value="&lt;span style=&quot;color: rgb(255 , 0 , 0)&quot;&gt;&amp;gt;=&lt;/span&gt;" style="rounded=0;whiteSpace=wrap;html=1;fillColor=#f5f5f5;fontColor=#333333;strokeColor=#666666;" parent="414" vertex="1">
                    <mxGeometry x="160" width="20" height="20" as="geometry"/>
                </mxCell>
                <mxCell id="409" value="&lt;span style=&quot;color: rgb(255 , 0 , 0)&quot;&gt;===&lt;/span&gt;" style="rounded=0;whiteSpace=wrap;html=1;fillColor=#f5f5f5;fontColor=#333333;strokeColor=#666666;" parent="414" vertex="1">
                    <mxGeometry x="180" width="30" height="20" as="geometry"/>
                </mxCell>
                <mxCell id="410" value="&lt;span style=&quot;color: rgb(255 , 0 , 0)&quot;&gt;!==&lt;/span&gt;" style="rounded=0;whiteSpace=wrap;html=1;fillColor=#f5f5f5;fontColor=#333333;strokeColor=#666666;" parent="414" vertex="1">
                    <mxGeometry x="210" width="30" height="20" as="geometry"/>
                </mxCell>
                <mxCell id="411" value="&lt;span style=&quot;color: rgb(255 , 0 , 0)&quot;&gt;(&lt;/span&gt;" style="rounded=0;whiteSpace=wrap;html=1;direction=south;fillColor=#f5f5f5;fontColor=#333333;strokeColor=#666666;" parent="414" vertex="1">
                    <mxGeometry x="240" width="20" height="20" as="geometry"/>
                </mxCell>
                <mxCell id="412" value="&lt;span style=&quot;color: rgb(255 , 0 , 0)&quot;&gt;)&lt;/span&gt;" style="rounded=0;whiteSpace=wrap;html=1;direction=south;fillColor=#f5f5f5;fontColor=#333333;strokeColor=#666666;" parent="414" vertex="1">
                    <mxGeometry x="260" width="20" height="20" as="geometry"/>
                </mxCell>
                <mxCell id="583" value="&lt;span style=&quot;color: rgb(255 , 0 , 0)&quot;&gt;id&lt;/span&gt;" style="rounded=0;whiteSpace=wrap;html=1;direction=south;fillColor=#f5f5f5;fontColor=#333333;strokeColor=#666666;" parent="414" vertex="1">
                    <mxGeometry x="280" width="20" height="20" as="geometry"/>
                </mxCell>
                <mxCell id="432" value="&lt;font color=&quot;#ffb366&quot;&gt;/&lt;/font&gt;" style="rounded=0;whiteSpace=wrap;html=1;fillColor=#f5f5f5;fontColor=#333333;strokeColor=#666666;" parent="1" vertex="1">
                    <mxGeometry x="720" y="70" width="20" height="20" as="geometry"/>
                </mxCell>
                <mxCell id="433" value="&lt;font color=&quot;#ffb366&quot;&gt;+&lt;/font&gt;" style="rounded=0;whiteSpace=wrap;html=1;fillColor=#f5f5f5;fontColor=#333333;strokeColor=#666666;" parent="1" vertex="1">
                    <mxGeometry x="720" y="90" width="20" height="20" as="geometry"/>
                </mxCell>
                <mxCell id="434" value="&lt;font color=&quot;#ffb366&quot;&gt;-&lt;/font&gt;" style="rounded=0;whiteSpace=wrap;html=1;fillColor=#f5f5f5;fontColor=#333333;strokeColor=#666666;" parent="1" vertex="1">
                    <mxGeometry x="720" y="110" width="20" height="20" as="geometry"/>
                </mxCell>
                <mxCell id="435" value="&lt;font color=&quot;#ffb366&quot;&gt;.&lt;/font&gt;" style="rounded=0;whiteSpace=wrap;html=1;fillColor=#f5f5f5;fontColor=#333333;strokeColor=#666666;" parent="1" vertex="1">
                    <mxGeometry x="720" y="130" width="20" height="20" as="geometry"/>
                </mxCell>
                <mxCell id="436" value="&lt;font color=&quot;#ffb366&quot;&gt;&amp;lt;&lt;/font&gt;" style="rounded=0;whiteSpace=wrap;html=1;fillColor=#f5f5f5;fontColor=#333333;strokeColor=#666666;" parent="1" vertex="1">
                    <mxGeometry x="720" y="150" width="20" height="20" as="geometry"/>
                </mxCell>
                <mxCell id="437" value="&lt;font color=&quot;#ffb366&quot;&gt;&amp;gt;&lt;/font&gt;" style="rounded=0;whiteSpace=wrap;html=1;fillColor=#f5f5f5;fontColor=#333333;strokeColor=#666666;" parent="1" vertex="1">
                    <mxGeometry x="720" y="170" width="20" height="20" as="geometry"/>
                </mxCell>
                <mxCell id="438" value="&lt;font color=&quot;#ffb366&quot;&gt;&amp;lt;=&lt;/font&gt;" style="rounded=0;whiteSpace=wrap;html=1;fillColor=#f5f5f5;fontColor=#333333;strokeColor=#666666;" parent="1" vertex="1">
                    <mxGeometry x="720" y="190" width="20" height="20" as="geometry"/>
                </mxCell>
                <mxCell id="439" value="&lt;font color=&quot;#ffb366&quot;&gt;&amp;gt;=&lt;/font&gt;" style="rounded=0;whiteSpace=wrap;html=1;fillColor=#f5f5f5;fontColor=#333333;strokeColor=#666666;" parent="1" vertex="1">
                    <mxGeometry x="720" y="210" width="20" height="20" as="geometry"/>
                </mxCell>
                <mxCell id="440" value="&lt;font color=&quot;#ffb366&quot;&gt;===&lt;/font&gt;" style="rounded=0;whiteSpace=wrap;html=1;fillColor=#f5f5f5;fontColor=#333333;strokeColor=#666666;" parent="1" vertex="1">
                    <mxGeometry x="710" y="230" width="30" height="20" as="geometry"/>
                </mxCell>
                <mxCell id="441" value="&lt;font color=&quot;#ffb366&quot;&gt;!==&lt;/font&gt;" style="rounded=0;whiteSpace=wrap;html=1;fillColor=#f5f5f5;fontColor=#333333;strokeColor=#666666;" parent="1" vertex="1">
                    <mxGeometry x="710" y="250" width="30" height="20" as="geometry"/>
                </mxCell>
                <mxCell id="442" value="&lt;font color=&quot;#ffb366&quot;&gt;$&lt;/font&gt;" style="rounded=0;whiteSpace=wrap;html=1;fillColor=#f5f5f5;fontColor=#333333;strokeColor=#666666;" parent="1" vertex="1">
                    <mxGeometry x="720" y="330" width="20" height="20" as="geometry"/>
                </mxCell>
                <mxCell id="443" value="&lt;font color=&quot;#ffb366&quot;&gt;)&lt;/font&gt;" style="rounded=0;whiteSpace=wrap;html=1;fillColor=#f5f5f5;fontColor=#333333;strokeColor=#666666;" parent="1" vertex="1">
                    <mxGeometry x="720" y="290" width="20" height="20" as="geometry"/>
                </mxCell>
                <mxCell id="444" value="&lt;font color=&quot;#ffb366&quot;&gt;(&lt;/font&gt;" style="rounded=0;whiteSpace=wrap;html=1;fillColor=#f5f5f5;fontColor=#333333;strokeColor=#666666;" parent="1" vertex="1">
                    <mxGeometry x="720" y="270" width="20" height="20" as="geometry"/>
                </mxCell>
                <mxCell id="449" value="&lt;font color=&quot;#009900&quot;&gt;&amp;gt;&lt;/font&gt;" style="rounded=0;whiteSpace=wrap;html=1;fillColor=#f5f5f5;fontColor=#333333;strokeColor=#666666;" parent="1" vertex="1">
                    <mxGeometry x="780" y="50" width="20" height="20" as="geometry"/>
                </mxCell>
                <mxCell id="451" value="&lt;font color=&quot;#009900&quot;&gt;&amp;gt;&lt;/font&gt;" style="rounded=0;whiteSpace=wrap;html=1;fillColor=#f5f5f5;fontColor=#333333;strokeColor=#666666;" parent="1" vertex="1">
                    <mxGeometry x="800" y="50" width="20" height="20" as="geometry"/>
                </mxCell>
                <mxCell id="452" value="&lt;font color=&quot;#009900&quot;&gt;&amp;gt;&lt;/font&gt;" style="rounded=0;whiteSpace=wrap;html=1;fillColor=#f5f5f5;fontColor=#333333;strokeColor=#666666;" parent="1" vertex="1">
                    <mxGeometry x="820" y="50" width="20" height="20" as="geometry"/>
                </mxCell>
                <mxCell id="453" value="&lt;font color=&quot;#009900&quot;&gt;&amp;gt;&lt;/font&gt;" style="rounded=0;whiteSpace=wrap;html=1;fillColor=#f5f5f5;fontColor=#333333;strokeColor=#666666;" parent="1" vertex="1">
                    <mxGeometry x="840" y="50" width="20" height="20" as="geometry"/>
                </mxCell>
                <mxCell id="455" value="&lt;font color=&quot;#009900&quot;&gt;&amp;gt;&lt;/font&gt;" style="rounded=0;whiteSpace=wrap;html=1;fillColor=#f5f5f5;fontColor=#333333;strokeColor=#666666;" parent="1" vertex="1">
                    <mxGeometry x="860" y="50" width="20" height="20" as="geometry"/>
                </mxCell>
                <mxCell id="456" value="&lt;font color=&quot;#009900&quot;&gt;&amp;gt;&lt;/font&gt;" style="rounded=0;whiteSpace=wrap;html=1;fillColor=#f5f5f5;fontColor=#333333;strokeColor=#666666;" parent="1" vertex="1">
                    <mxGeometry x="880" y="50" width="20" height="20" as="geometry"/>
                </mxCell>
                <mxCell id="457" value="&lt;font color=&quot;#009900&quot;&gt;&amp;gt;&lt;/font&gt;" style="rounded=0;whiteSpace=wrap;html=1;fillColor=#f5f5f5;fontColor=#333333;strokeColor=#666666;" parent="1" vertex="1">
                    <mxGeometry x="900" y="50" width="20" height="20" as="geometry"/>
                </mxCell>
                <mxCell id="458" value="&lt;font color=&quot;#009900&quot;&gt;&amp;gt;&lt;/font&gt;" style="rounded=0;whiteSpace=wrap;html=1;fillColor=#f5f5f5;fontColor=#333333;strokeColor=#666666;" parent="1" vertex="1">
                    <mxGeometry x="920" y="50" width="30" height="20" as="geometry"/>
                </mxCell>
                <mxCell id="459" value="&lt;font color=&quot;#009900&quot;&gt;&amp;gt;&lt;/font&gt;" style="rounded=0;whiteSpace=wrap;html=1;fillColor=#f5f5f5;fontColor=#333333;strokeColor=#666666;" parent="1" vertex="1">
                    <mxGeometry x="950" y="50" width="30" height="20" as="geometry"/>
                </mxCell>
                <mxCell id="460" value="&lt;font color=&quot;#009900&quot;&gt;&amp;lt;&lt;/font&gt;" style="rounded=0;whiteSpace=wrap;html=1;fillColor=#f5f5f5;fontColor=#333333;strokeColor=#666666;" parent="1" vertex="1">
                    <mxGeometry x="740" y="90" width="20" height="20" as="geometry"/>
                </mxCell>
                <mxCell id="461" value="&lt;font color=&quot;#009900&quot;&gt;&amp;lt;&lt;/font&gt;" style="rounded=0;whiteSpace=wrap;html=1;fillColor=#f5f5f5;fontColor=#333333;strokeColor=#666666;" parent="1" vertex="1">
                    <mxGeometry x="740" y="110" width="20" height="20" as="geometry"/>
                </mxCell>
                <mxCell id="462" value="&lt;font color=&quot;#009900&quot;&gt;&amp;lt;&lt;/font&gt;" style="rounded=0;whiteSpace=wrap;html=1;fillColor=#f5f5f5;fontColor=#333333;strokeColor=#666666;" parent="1" vertex="1">
                    <mxGeometry x="740" y="190" width="20" height="20" as="geometry"/>
                </mxCell>
                <mxCell id="463" value="&lt;font color=&quot;#009900&quot;&gt;&amp;lt;&lt;/font&gt;" style="rounded=0;whiteSpace=wrap;html=1;fillColor=#f5f5f5;fontColor=#333333;strokeColor=#666666;" parent="1" vertex="1">
                    <mxGeometry x="740" y="130" width="20" height="20" as="geometry"/>
                </mxCell>
                <mxCell id="464" value="&lt;font color=&quot;#009900&quot;&gt;&amp;lt;&lt;/font&gt;" style="rounded=0;whiteSpace=wrap;html=1;fillColor=#f5f5f5;fontColor=#333333;strokeColor=#666666;" parent="1" vertex="1">
                    <mxGeometry x="740" y="150" width="20" height="20" as="geometry"/>
                </mxCell>
                <mxCell id="465" value="&lt;font color=&quot;#009900&quot;&gt;&amp;lt;&lt;/font&gt;" style="rounded=0;whiteSpace=wrap;html=1;fillColor=#f5f5f5;fontColor=#333333;strokeColor=#666666;" parent="1" vertex="1">
                    <mxGeometry x="740" y="170" width="20" height="20" as="geometry"/>
                </mxCell>
                <mxCell id="466" value="&lt;font color=&quot;#009900&quot;&gt;&amp;lt;&lt;/font&gt;" style="rounded=0;whiteSpace=wrap;html=1;fillColor=#f5f5f5;fontColor=#333333;strokeColor=#666666;" parent="1" vertex="1">
                    <mxGeometry x="740" y="210" width="20" height="20" as="geometry"/>
                </mxCell>
                <mxCell id="467" value="&lt;font color=&quot;#009900&quot;&gt;&amp;lt;&lt;/font&gt;" style="rounded=0;whiteSpace=wrap;html=1;fillColor=#f5f5f5;fontColor=#333333;strokeColor=#666666;" parent="1" vertex="1">
                    <mxGeometry x="740" y="230" width="20" height="20" as="geometry"/>
                </mxCell>
                <mxCell id="468" value="&lt;font color=&quot;#009900&quot;&gt;&amp;lt;&lt;/font&gt;" style="rounded=0;whiteSpace=wrap;html=1;fillColor=#f5f5f5;fontColor=#333333;strokeColor=#666666;" parent="1" vertex="1">
                    <mxGeometry x="740" y="250" width="20" height="20" as="geometry"/>
                </mxCell>
                <mxCell id="469" value="&lt;font color=&quot;#009900&quot;&gt;&amp;gt;&lt;/font&gt;" style="rounded=0;whiteSpace=wrap;html=1;fillColor=#f5f5f5;fontColor=#333333;strokeColor=#666666;" parent="1" vertex="1">
                    <mxGeometry x="780" y="70" width="20" height="20" as="geometry"/>
                </mxCell>
                <mxCell id="470" value="&lt;font color=&quot;#009900&quot;&gt;&amp;gt;&lt;/font&gt;" style="rounded=0;whiteSpace=wrap;html=1;fillColor=#f5f5f5;fontColor=#333333;strokeColor=#666666;" parent="1" vertex="1">
                    <mxGeometry x="800" y="70" width="20" height="20" as="geometry"/>
                </mxCell>
                <mxCell id="471" value="&lt;font color=&quot;#009900&quot;&gt;&amp;gt;&lt;/font&gt;" style="rounded=0;whiteSpace=wrap;html=1;fillColor=#f5f5f5;fontColor=#333333;strokeColor=#666666;" parent="1" vertex="1">
                    <mxGeometry x="820" y="70" width="20" height="20" as="geometry"/>
                </mxCell>
                <mxCell id="472" value="&lt;font color=&quot;#009900&quot;&gt;&amp;gt;&lt;/font&gt;" style="rounded=0;whiteSpace=wrap;html=1;fillColor=#f5f5f5;fontColor=#333333;strokeColor=#666666;" parent="1" vertex="1">
                    <mxGeometry x="840" y="70" width="20" height="20" as="geometry"/>
                </mxCell>
                <mxCell id="473" value="&lt;font color=&quot;#009900&quot;&gt;&amp;gt;&lt;/font&gt;" style="rounded=0;whiteSpace=wrap;html=1;fillColor=#f5f5f5;fontColor=#333333;strokeColor=#666666;" parent="1" vertex="1">
                    <mxGeometry x="860" y="70" width="20" height="20" as="geometry"/>
                </mxCell>
                <mxCell id="474" value="&lt;font color=&quot;#009900&quot;&gt;&amp;gt;&lt;/font&gt;" style="rounded=0;whiteSpace=wrap;html=1;fillColor=#f5f5f5;fontColor=#333333;strokeColor=#666666;" parent="1" vertex="1">
                    <mxGeometry x="880" y="70" width="20" height="20" as="geometry"/>
                </mxCell>
                <mxCell id="475" value="&lt;font color=&quot;#009900&quot;&gt;&amp;gt;&lt;/font&gt;" style="rounded=0;whiteSpace=wrap;html=1;fillColor=#f5f5f5;fontColor=#333333;strokeColor=#666666;" parent="1" vertex="1">
                    <mxGeometry x="900" y="70" width="20" height="20" as="geometry"/>
                </mxCell>
                <mxCell id="476" value="&lt;font color=&quot;#009900&quot;&gt;&amp;gt;&lt;/font&gt;" style="rounded=0;whiteSpace=wrap;html=1;fillColor=#f5f5f5;fontColor=#333333;strokeColor=#666666;" parent="1" vertex="1">
                    <mxGeometry x="920" y="70" width="30" height="20" as="geometry"/>
                </mxCell>
                <mxCell id="477" value="&lt;font color=&quot;#009900&quot;&gt;&amp;gt;&lt;/font&gt;" style="rounded=0;whiteSpace=wrap;html=1;fillColor=#f5f5f5;fontColor=#333333;strokeColor=#666666;" parent="1" vertex="1">
                    <mxGeometry x="950" y="70" width="30" height="20" as="geometry"/>
                </mxCell>
                <mxCell id="478" value="&lt;font color=&quot;#009900&quot;&gt;&amp;lt;&lt;/font&gt;" style="rounded=0;whiteSpace=wrap;html=1;fillColor=#f5f5f5;fontColor=#333333;strokeColor=#666666;" parent="1" vertex="1">
                    <mxGeometry x="760" y="90" width="20" height="20" as="geometry"/>
                </mxCell>
                <mxCell id="479" value="&lt;font color=&quot;#009900&quot;&gt;&amp;lt;&lt;/font&gt;" style="rounded=0;whiteSpace=wrap;html=1;fillColor=#f5f5f5;fontColor=#333333;strokeColor=#666666;" parent="1" vertex="1">
                    <mxGeometry x="760" y="110" width="20" height="20" as="geometry"/>
                </mxCell>
                <mxCell id="480" value="&lt;font color=&quot;#009900&quot;&gt;&amp;lt;&lt;/font&gt;" style="rounded=0;whiteSpace=wrap;html=1;fillColor=#f5f5f5;fontColor=#333333;strokeColor=#666666;" parent="1" vertex="1">
                    <mxGeometry x="760" y="190" width="20" height="20" as="geometry"/>
                </mxCell>
                <mxCell id="481" value="&lt;font color=&quot;#009900&quot;&gt;&amp;lt;&lt;/font&gt;" style="rounded=0;whiteSpace=wrap;html=1;fillColor=#f5f5f5;fontColor=#333333;strokeColor=#666666;" parent="1" vertex="1">
                    <mxGeometry x="760" y="130" width="20" height="20" as="geometry"/>
                </mxCell>
                <mxCell id="482" value="&lt;font color=&quot;#009900&quot;&gt;&amp;lt;&lt;/font&gt;" style="rounded=0;whiteSpace=wrap;html=1;fillColor=#f5f5f5;fontColor=#333333;strokeColor=#666666;" parent="1" vertex="1">
                    <mxGeometry x="760" y="150" width="20" height="20" as="geometry"/>
                </mxCell>
                <mxCell id="483" value="&lt;font color=&quot;#009900&quot;&gt;&amp;lt;&lt;/font&gt;" style="rounded=0;whiteSpace=wrap;html=1;fillColor=#f5f5f5;fontColor=#333333;strokeColor=#666666;" parent="1" vertex="1">
                    <mxGeometry x="760" y="170" width="20" height="20" as="geometry"/>
                </mxCell>
                <mxCell id="484" value="&lt;font color=&quot;#009900&quot;&gt;&amp;lt;&lt;/font&gt;" style="rounded=0;whiteSpace=wrap;html=1;fillColor=#f5f5f5;fontColor=#333333;strokeColor=#666666;" parent="1" vertex="1">
                    <mxGeometry x="760" y="210" width="20" height="20" as="geometry"/>
                </mxCell>
                <mxCell id="485" value="&lt;font color=&quot;#009900&quot;&gt;&amp;lt;&lt;/font&gt;" style="rounded=0;whiteSpace=wrap;html=1;fillColor=#f5f5f5;fontColor=#333333;strokeColor=#666666;" parent="1" vertex="1">
                    <mxGeometry x="760" y="230" width="20" height="20" as="geometry"/>
                </mxCell>
                <mxCell id="486" value="&lt;font color=&quot;#009900&quot;&gt;&amp;lt;&lt;/font&gt;" style="rounded=0;whiteSpace=wrap;html=1;fillColor=#f5f5f5;fontColor=#333333;strokeColor=#666666;" parent="1" vertex="1">
                    <mxGeometry x="760" y="250" width="20" height="20" as="geometry"/>
                </mxCell>
                <mxCell id="488" value="&lt;font color=&quot;#009900&quot;&gt;&amp;gt;&lt;/font&gt;" style="rounded=0;whiteSpace=wrap;html=1;fillColor=#f5f5f5;fontColor=#333333;strokeColor=#666666;" parent="1" vertex="1">
                    <mxGeometry x="840" y="90" width="20" height="20" as="geometry"/>
                </mxCell>
                <mxCell id="489" value="&lt;font color=&quot;#009900&quot;&gt;&amp;gt;&lt;/font&gt;" style="rounded=0;whiteSpace=wrap;html=1;fillColor=#f5f5f5;fontColor=#333333;strokeColor=#666666;" parent="1" vertex="1">
                    <mxGeometry x="860" y="90" width="20" height="20" as="geometry"/>
                </mxCell>
                <mxCell id="490" value="&lt;font color=&quot;#009900&quot;&gt;&amp;gt;&lt;/font&gt;" style="rounded=0;whiteSpace=wrap;html=1;fillColor=#f5f5f5;fontColor=#333333;strokeColor=#666666;" parent="1" vertex="1">
                    <mxGeometry x="880" y="90" width="20" height="20" as="geometry"/>
                </mxCell>
                <mxCell id="491" value="&lt;font color=&quot;#009900&quot;&gt;&amp;gt;&lt;/font&gt;" style="rounded=0;whiteSpace=wrap;html=1;fillColor=#f5f5f5;fontColor=#333333;strokeColor=#666666;" parent="1" vertex="1">
                    <mxGeometry x="900" y="90" width="20" height="20" as="geometry"/>
                </mxCell>
                <mxCell id="492" value="&lt;font color=&quot;#009900&quot;&gt;&amp;gt;&lt;/font&gt;" style="rounded=0;whiteSpace=wrap;html=1;fillColor=#f5f5f5;fontColor=#333333;strokeColor=#666666;" parent="1" vertex="1">
                    <mxGeometry x="920" y="90" width="30" height="20" as="geometry"/>
                </mxCell>
                <mxCell id="493" value="&lt;font color=&quot;#009900&quot;&gt;&amp;gt;&lt;/font&gt;" style="rounded=0;whiteSpace=wrap;html=1;fillColor=#f5f5f5;fontColor=#333333;strokeColor=#666666;" parent="1" vertex="1">
                    <mxGeometry x="950" y="90" width="30" height="20" as="geometry"/>
                </mxCell>
                <mxCell id="494" value="&lt;font color=&quot;#009900&quot;&gt;&amp;lt;&lt;/font&gt;" style="rounded=0;whiteSpace=wrap;html=1;fillColor=#f5f5f5;fontColor=#333333;strokeColor=#666666;" parent="1" vertex="1">
                    <mxGeometry x="780" y="190" width="20" height="20" as="geometry"/>
                </mxCell>
                <mxCell id="495" value="&lt;font color=&quot;#009900&quot;&gt;&amp;lt;&lt;/font&gt;" style="rounded=0;whiteSpace=wrap;html=1;fillColor=#f5f5f5;fontColor=#333333;strokeColor=#666666;" parent="1" vertex="1">
                    <mxGeometry x="780" y="150" width="20" height="20" as="geometry"/>
                </mxCell>
                <mxCell id="496" value="&lt;font color=&quot;#009900&quot;&gt;&amp;lt;&lt;/font&gt;" style="rounded=0;whiteSpace=wrap;html=1;fillColor=#f5f5f5;fontColor=#333333;strokeColor=#666666;" parent="1" vertex="1">
                    <mxGeometry x="780" y="170" width="20" height="20" as="geometry"/>
                </mxCell>
                <mxCell id="497" value="&lt;font color=&quot;#009900&quot;&gt;&amp;lt;&lt;/font&gt;" style="rounded=0;whiteSpace=wrap;html=1;fillColor=#f5f5f5;fontColor=#333333;strokeColor=#666666;" parent="1" vertex="1">
                    <mxGeometry x="780" y="210" width="20" height="20" as="geometry"/>
                </mxCell>
                <mxCell id="498" value="&lt;font color=&quot;#009900&quot;&gt;&amp;lt;&lt;/font&gt;" style="rounded=0;whiteSpace=wrap;html=1;fillColor=#f5f5f5;fontColor=#333333;strokeColor=#666666;" parent="1" vertex="1">
                    <mxGeometry x="780" y="230" width="20" height="20" as="geometry"/>
                </mxCell>
                <mxCell id="499" value="&lt;font color=&quot;#009900&quot;&gt;&amp;lt;&lt;/font&gt;" style="rounded=0;whiteSpace=wrap;html=1;fillColor=#f5f5f5;fontColor=#333333;strokeColor=#666666;" parent="1" vertex="1">
                    <mxGeometry x="780" y="250" width="20" height="20" as="geometry"/>
                </mxCell>
                <mxCell id="502" value="&lt;font color=&quot;#009900&quot;&gt;&amp;gt;&lt;/font&gt;" style="rounded=0;whiteSpace=wrap;html=1;fillColor=#f5f5f5;fontColor=#333333;strokeColor=#666666;" parent="1" vertex="1">
                    <mxGeometry x="840" y="110" width="20" height="20" as="geometry"/>
                </mxCell>
                <mxCell id="503" value="&lt;font color=&quot;#009900&quot;&gt;&amp;gt;&lt;/font&gt;" style="rounded=0;whiteSpace=wrap;html=1;fillColor=#f5f5f5;fontColor=#333333;strokeColor=#666666;" parent="1" vertex="1">
                    <mxGeometry x="860" y="110" width="20" height="20" as="geometry"/>
                </mxCell>
                <mxCell id="504" value="&lt;font color=&quot;#009900&quot;&gt;&amp;gt;&lt;/font&gt;" style="rounded=0;whiteSpace=wrap;html=1;fillColor=#f5f5f5;fontColor=#333333;strokeColor=#666666;" parent="1" vertex="1">
                    <mxGeometry x="880" y="110" width="20" height="20" as="geometry"/>
                </mxCell>
                <mxCell id="505" value="&lt;font color=&quot;#009900&quot;&gt;&amp;gt;&lt;/font&gt;" style="rounded=0;whiteSpace=wrap;html=1;fillColor=#f5f5f5;fontColor=#333333;strokeColor=#666666;" parent="1" vertex="1">
                    <mxGeometry x="900" y="110" width="20" height="20" as="geometry"/>
                </mxCell>
                <mxCell id="506" value="&lt;font color=&quot;#009900&quot;&gt;&amp;gt;&lt;/font&gt;" style="rounded=0;whiteSpace=wrap;html=1;fillColor=#f5f5f5;fontColor=#333333;strokeColor=#666666;" parent="1" vertex="1">
                    <mxGeometry x="920" y="110" width="30" height="20" as="geometry"/>
                </mxCell>
                <mxCell id="507" value="&lt;font color=&quot;#009900&quot;&gt;&amp;gt;&lt;/font&gt;" style="rounded=0;whiteSpace=wrap;html=1;fillColor=#f5f5f5;fontColor=#333333;strokeColor=#666666;" parent="1" vertex="1">
                    <mxGeometry x="950" y="110" width="30" height="20" as="geometry"/>
                </mxCell>
                <mxCell id="508" value="&lt;font color=&quot;#009900&quot;&gt;&amp;gt;&lt;/font&gt;" style="rounded=0;whiteSpace=wrap;html=1;fillColor=#f5f5f5;fontColor=#333333;strokeColor=#666666;" parent="1" vertex="1">
                    <mxGeometry x="840" y="130" width="20" height="20" as="geometry"/>
                </mxCell>
                <mxCell id="509" value="&lt;font color=&quot;#009900&quot;&gt;&amp;gt;&lt;/font&gt;" style="rounded=0;whiteSpace=wrap;html=1;fillColor=#f5f5f5;fontColor=#333333;strokeColor=#666666;" parent="1" vertex="1">
                    <mxGeometry x="860" y="130" width="20" height="20" as="geometry"/>
                </mxCell>
                <mxCell id="510" value="&lt;font color=&quot;#009900&quot;&gt;&amp;gt;&lt;/font&gt;" style="rounded=0;whiteSpace=wrap;html=1;fillColor=#f5f5f5;fontColor=#333333;strokeColor=#666666;" parent="1" vertex="1">
                    <mxGeometry x="880" y="130" width="20" height="20" as="geometry"/>
                </mxCell>
                <mxCell id="511" value="&lt;font color=&quot;#009900&quot;&gt;&amp;gt;&lt;/font&gt;" style="rounded=0;whiteSpace=wrap;html=1;fillColor=#f5f5f5;fontColor=#333333;strokeColor=#666666;" parent="1" vertex="1">
                    <mxGeometry x="900" y="130" width="20" height="20" as="geometry"/>
                </mxCell>
                <mxCell id="512" value="&lt;font color=&quot;#009900&quot;&gt;&amp;gt;&lt;/font&gt;" style="rounded=0;whiteSpace=wrap;html=1;fillColor=#f5f5f5;fontColor=#333333;strokeColor=#666666;" parent="1" vertex="1">
                    <mxGeometry x="920" y="130" width="30" height="20" as="geometry"/>
                </mxCell>
                <mxCell id="513" value="&lt;font color=&quot;#009900&quot;&gt;&amp;gt;&lt;/font&gt;" style="rounded=0;whiteSpace=wrap;html=1;fillColor=#f5f5f5;fontColor=#333333;strokeColor=#666666;" parent="1" vertex="1">
                    <mxGeometry x="950" y="130" width="30" height="20" as="geometry"/>
                </mxCell>
                <mxCell id="514" value="&lt;font color=&quot;#009900&quot;&gt;&amp;lt;&lt;/font&gt;" style="rounded=0;whiteSpace=wrap;html=1;fillColor=#f5f5f5;fontColor=#333333;strokeColor=#666666;" parent="1" vertex="1">
                    <mxGeometry x="800" y="190" width="20" height="20" as="geometry"/>
                </mxCell>
                <mxCell id="515" value="&lt;font color=&quot;#009900&quot;&gt;&amp;lt;&lt;/font&gt;" style="rounded=0;whiteSpace=wrap;html=1;fillColor=#f5f5f5;fontColor=#333333;strokeColor=#666666;" parent="1" vertex="1">
                    <mxGeometry x="800" y="150" width="20" height="20" as="geometry"/>
                </mxCell>
                <mxCell id="516" value="&lt;font color=&quot;#009900&quot;&gt;&amp;lt;&lt;/font&gt;" style="rounded=0;whiteSpace=wrap;html=1;fillColor=#f5f5f5;fontColor=#333333;strokeColor=#666666;" parent="1" vertex="1">
                    <mxGeometry x="800" y="170" width="20" height="20" as="geometry"/>
                </mxCell>
                <mxCell id="517" value="&lt;font color=&quot;#009900&quot;&gt;&amp;lt;&lt;/font&gt;" style="rounded=0;whiteSpace=wrap;html=1;fillColor=#f5f5f5;fontColor=#333333;strokeColor=#666666;" parent="1" vertex="1">
                    <mxGeometry x="800" y="210" width="20" height="20" as="geometry"/>
                </mxCell>
                <mxCell id="518" value="&lt;font color=&quot;#009900&quot;&gt;&amp;lt;&lt;/font&gt;" style="rounded=0;whiteSpace=wrap;html=1;fillColor=#f5f5f5;fontColor=#333333;strokeColor=#666666;" parent="1" vertex="1">
                    <mxGeometry x="800" y="230" width="20" height="20" as="geometry"/>
                </mxCell>
                <mxCell id="519" value="&lt;font color=&quot;#009900&quot;&gt;&amp;lt;&lt;/font&gt;" style="rounded=0;whiteSpace=wrap;html=1;fillColor=#f5f5f5;fontColor=#333333;strokeColor=#666666;" parent="1" vertex="1">
                    <mxGeometry x="800" y="250" width="20" height="20" as="geometry"/>
                </mxCell>
                <mxCell id="520" value="&lt;font color=&quot;#009900&quot;&gt;&amp;lt;&lt;/font&gt;" style="rounded=0;whiteSpace=wrap;html=1;fillColor=#f5f5f5;fontColor=#333333;strokeColor=#666666;" parent="1" vertex="1">
                    <mxGeometry x="820" y="190" width="20" height="20" as="geometry"/>
                </mxCell>
                <mxCell id="521" value="&lt;font color=&quot;#009900&quot;&gt;&amp;lt;&lt;/font&gt;" style="rounded=0;whiteSpace=wrap;html=1;fillColor=#f5f5f5;fontColor=#333333;strokeColor=#666666;" parent="1" vertex="1">
                    <mxGeometry x="820" y="150" width="20" height="20" as="geometry"/>
                </mxCell>
                <mxCell id="522" value="&lt;font color=&quot;#009900&quot;&gt;&amp;lt;&lt;/font&gt;" style="rounded=0;whiteSpace=wrap;html=1;fillColor=#f5f5f5;fontColor=#333333;strokeColor=#666666;" parent="1" vertex="1">
                    <mxGeometry x="820" y="170" width="20" height="20" as="geometry"/>
                </mxCell>
                <mxCell id="523" value="&lt;font color=&quot;#009900&quot;&gt;&amp;lt;&lt;/font&gt;" style="rounded=0;whiteSpace=wrap;html=1;fillColor=#f5f5f5;fontColor=#333333;strokeColor=#666666;" parent="1" vertex="1">
                    <mxGeometry x="820" y="210" width="20" height="20" as="geometry"/>
                </mxCell>
                <mxCell id="524" value="&lt;font color=&quot;#009900&quot;&gt;&amp;lt;&lt;/font&gt;" style="rounded=0;whiteSpace=wrap;html=1;fillColor=#f5f5f5;fontColor=#333333;strokeColor=#666666;" parent="1" vertex="1">
                    <mxGeometry x="820" y="230" width="20" height="20" as="geometry"/>
                </mxCell>
                <mxCell id="525" value="&lt;font color=&quot;#009900&quot;&gt;&amp;lt;&lt;/font&gt;" style="rounded=0;whiteSpace=wrap;html=1;fillColor=#f5f5f5;fontColor=#333333;strokeColor=#666666;" parent="1" vertex="1">
                    <mxGeometry x="820" y="250" width="20" height="20" as="geometry"/>
                </mxCell>
                <mxCell id="526" value="&lt;font color=&quot;#009900&quot;&gt;&amp;gt;&lt;/font&gt;" style="rounded=0;whiteSpace=wrap;html=1;fillColor=#f5f5f5;fontColor=#333333;strokeColor=#666666;" parent="1" vertex="1">
                    <mxGeometry x="920" y="150" width="30" height="20" as="geometry"/>
                </mxCell>
                <mxCell id="527" value="&lt;font color=&quot;#009900&quot;&gt;&amp;gt;&lt;/font&gt;" style="rounded=0;whiteSpace=wrap;html=1;fillColor=#f5f5f5;fontColor=#333333;strokeColor=#666666;" parent="1" vertex="1">
                    <mxGeometry x="950" y="150" width="30" height="20" as="geometry"/>
                </mxCell>
                <mxCell id="528" value="&lt;font color=&quot;#009900&quot;&gt;&amp;gt;&lt;/font&gt;" style="rounded=0;whiteSpace=wrap;html=1;fillColor=#f5f5f5;fontColor=#333333;strokeColor=#666666;" parent="1" vertex="1">
                    <mxGeometry x="920" y="170" width="30" height="20" as="geometry"/>
                </mxCell>
                <mxCell id="529" value="&lt;font color=&quot;#009900&quot;&gt;&amp;gt;&lt;/font&gt;" style="rounded=0;whiteSpace=wrap;html=1;fillColor=#f5f5f5;fontColor=#333333;strokeColor=#666666;" parent="1" vertex="1">
                    <mxGeometry x="950" y="170" width="30" height="20" as="geometry"/>
                </mxCell>
                <mxCell id="530" value="&lt;font color=&quot;#009900&quot;&gt;&amp;gt;&lt;/font&gt;" style="rounded=0;whiteSpace=wrap;html=1;fillColor=#f5f5f5;fontColor=#333333;strokeColor=#666666;" parent="1" vertex="1">
                    <mxGeometry x="920" y="190" width="30" height="20" as="geometry"/>
                </mxCell>
                <mxCell id="531" value="&lt;font color=&quot;#009900&quot;&gt;&amp;gt;&lt;/font&gt;" style="rounded=0;whiteSpace=wrap;html=1;fillColor=#f5f5f5;fontColor=#333333;strokeColor=#666666;" parent="1" vertex="1">
                    <mxGeometry x="950" y="190" width="30" height="20" as="geometry"/>
                </mxCell>
                <mxCell id="532" value="&lt;font color=&quot;#009900&quot;&gt;&amp;gt;&lt;/font&gt;" style="rounded=0;whiteSpace=wrap;html=1;fillColor=#f5f5f5;fontColor=#333333;strokeColor=#666666;" parent="1" vertex="1">
                    <mxGeometry x="920" y="210" width="30" height="20" as="geometry"/>
                </mxCell>
                <mxCell id="533" value="&lt;font color=&quot;#009900&quot;&gt;&amp;gt;&lt;/font&gt;" style="rounded=0;whiteSpace=wrap;html=1;fillColor=#f5f5f5;fontColor=#333333;strokeColor=#666666;" parent="1" vertex="1">
                    <mxGeometry x="950" y="210" width="30" height="20" as="geometry"/>
                </mxCell>
                <mxCell id="534" value="&lt;font color=&quot;#009900&quot;&gt;&amp;lt;&lt;/font&gt;" style="rounded=0;whiteSpace=wrap;html=1;fillColor=#f5f5f5;fontColor=#333333;strokeColor=#666666;" parent="1" vertex="1">
                    <mxGeometry x="840" y="230" width="20" height="20" as="geometry"/>
                </mxCell>
                <mxCell id="535" value="&lt;font color=&quot;#009900&quot;&gt;&amp;lt;&lt;/font&gt;" style="rounded=0;whiteSpace=wrap;html=1;fillColor=#f5f5f5;fontColor=#333333;strokeColor=#666666;" parent="1" vertex="1">
                    <mxGeometry x="840" y="250" width="20" height="20" as="geometry"/>
                </mxCell>
                <mxCell id="536" value="&lt;font color=&quot;#009900&quot;&gt;&amp;lt;&lt;/font&gt;" style="rounded=0;whiteSpace=wrap;html=1;fillColor=#f5f5f5;fontColor=#333333;strokeColor=#666666;" parent="1" vertex="1">
                    <mxGeometry x="860" y="230" width="20" height="20" as="geometry"/>
                </mxCell>
                <mxCell id="537" value="&lt;font color=&quot;#009900&quot;&gt;&amp;lt;&lt;/font&gt;" style="rounded=0;whiteSpace=wrap;html=1;fillColor=#f5f5f5;fontColor=#333333;strokeColor=#666666;" parent="1" vertex="1">
                    <mxGeometry x="860" y="250" width="20" height="20" as="geometry"/>
                </mxCell>
                <mxCell id="538" value="&lt;font color=&quot;#009900&quot;&gt;&amp;lt;&lt;/font&gt;" style="rounded=0;whiteSpace=wrap;html=1;fillColor=#f5f5f5;fontColor=#333333;strokeColor=#666666;" parent="1" vertex="1">
                    <mxGeometry x="880" y="230" width="20" height="20" as="geometry"/>
                </mxCell>
                <mxCell id="539" value="&lt;font color=&quot;#009900&quot;&gt;&amp;lt;&lt;/font&gt;" style="rounded=0;whiteSpace=wrap;html=1;fillColor=#f5f5f5;fontColor=#333333;strokeColor=#666666;" parent="1" vertex="1">
                    <mxGeometry x="880" y="250" width="20" height="20" as="geometry"/>
                </mxCell>
                <mxCell id="540" value="&lt;font color=&quot;#009900&quot;&gt;&amp;lt;&lt;/font&gt;" style="rounded=0;whiteSpace=wrap;html=1;fillColor=#f5f5f5;fontColor=#333333;strokeColor=#666666;" parent="1" vertex="1">
                    <mxGeometry x="900" y="230" width="20" height="20" as="geometry"/>
                </mxCell>
                <mxCell id="541" value="&lt;font color=&quot;#009900&quot;&gt;&amp;lt;&lt;/font&gt;" style="rounded=0;whiteSpace=wrap;html=1;fillColor=#f5f5f5;fontColor=#333333;strokeColor=#666666;" parent="1" vertex="1">
                    <mxGeometry x="900" y="250" width="20" height="20" as="geometry"/>
                </mxCell>
                <mxCell id="546" value="&lt;font color=&quot;#009900&quot;&gt;&amp;gt;&lt;/font&gt;" style="rounded=0;whiteSpace=wrap;html=1;fillColor=#f5f5f5;fontColor=#333333;strokeColor=#666666;" parent="1" vertex="1">
                    <mxGeometry x="740" y="50" width="20" height="20" as="geometry"/>
                </mxCell>
                <mxCell id="547" value="&lt;font color=&quot;#009900&quot;&gt;&amp;gt;&lt;/font&gt;" style="rounded=0;whiteSpace=wrap;html=1;fillColor=#f5f5f5;fontColor=#333333;strokeColor=#666666;" parent="1" vertex="1">
                    <mxGeometry x="760" y="50" width="20" height="20" as="geometry"/>
                </mxCell>
                <mxCell id="548" value="&lt;font color=&quot;#009900&quot;&gt;&amp;gt;&lt;/font&gt;" style="rounded=0;whiteSpace=wrap;html=1;fillColor=#f5f5f5;fontColor=#333333;strokeColor=#666666;" parent="1" vertex="1">
                    <mxGeometry x="740" y="70" width="20" height="20" as="geometry"/>
                </mxCell>
                <mxCell id="549" value="&lt;font color=&quot;#009900&quot;&gt;&amp;gt;&lt;/font&gt;" style="rounded=0;whiteSpace=wrap;html=1;fillColor=#f5f5f5;fontColor=#333333;strokeColor=#666666;" parent="1" vertex="1">
                    <mxGeometry x="760" y="70" width="20" height="20" as="geometry"/>
                </mxCell>
                <mxCell id="554" value="&lt;font color=&quot;#009900&quot;&gt;&amp;gt;&lt;/font&gt;" style="rounded=0;whiteSpace=wrap;html=1;fillColor=#f5f5f5;fontColor=#333333;strokeColor=#666666;" parent="1" vertex="1">
                    <mxGeometry x="780" y="90" width="20" height="20" as="geometry"/>
                </mxCell>
                <mxCell id="555" value="&lt;font color=&quot;#009900&quot;&gt;&amp;gt;&lt;/font&gt;" style="rounded=0;whiteSpace=wrap;html=1;fillColor=#f5f5f5;fontColor=#333333;strokeColor=#666666;" parent="1" vertex="1">
                    <mxGeometry x="800" y="90" width="20" height="20" as="geometry"/>
                </mxCell>
                <mxCell id="556" value="&lt;font color=&quot;#009900&quot;&gt;&amp;gt;&lt;/font&gt;" style="rounded=0;whiteSpace=wrap;html=1;fillColor=#f5f5f5;fontColor=#333333;strokeColor=#666666;" parent="1" vertex="1">
                    <mxGeometry x="820" y="90" width="20" height="20" as="geometry"/>
                </mxCell>
                <mxCell id="557" value="&lt;font color=&quot;#009900&quot;&gt;&amp;gt;&lt;/font&gt;" style="rounded=0;whiteSpace=wrap;html=1;fillColor=#f5f5f5;fontColor=#333333;strokeColor=#666666;" parent="1" vertex="1">
                    <mxGeometry x="780" y="110" width="20" height="20" as="geometry"/>
                </mxCell>
                <mxCell id="558" value="&lt;font color=&quot;#009900&quot;&gt;&amp;gt;&lt;/font&gt;" style="rounded=0;whiteSpace=wrap;html=1;fillColor=#f5f5f5;fontColor=#333333;strokeColor=#666666;" parent="1" vertex="1">
                    <mxGeometry x="800" y="110" width="20" height="20" as="geometry"/>
                </mxCell>
                <mxCell id="559" value="&lt;font color=&quot;#009900&quot;&gt;&amp;gt;&lt;/font&gt;" style="rounded=0;whiteSpace=wrap;html=1;fillColor=#f5f5f5;fontColor=#333333;strokeColor=#666666;" parent="1" vertex="1">
                    <mxGeometry x="820" y="110" width="20" height="20" as="geometry"/>
                </mxCell>
                <mxCell id="560" value="&lt;font color=&quot;#009900&quot;&gt;&amp;gt;&lt;/font&gt;" style="rounded=0;whiteSpace=wrap;html=1;fillColor=#f5f5f5;fontColor=#333333;strokeColor=#666666;" parent="1" vertex="1">
                    <mxGeometry x="780" y="130" width="20" height="20" as="geometry"/>
                </mxCell>
                <mxCell id="561" value="&lt;font color=&quot;#009900&quot;&gt;&amp;gt;&lt;/font&gt;" style="rounded=0;whiteSpace=wrap;html=1;fillColor=#f5f5f5;fontColor=#333333;strokeColor=#666666;" parent="1" vertex="1">
                    <mxGeometry x="800" y="130" width="20" height="20" as="geometry"/>
                </mxCell>
                <mxCell id="562" value="&lt;font color=&quot;#009900&quot;&gt;&amp;gt;&lt;/font&gt;" style="rounded=0;whiteSpace=wrap;html=1;fillColor=#f5f5f5;fontColor=#333333;strokeColor=#666666;" parent="1" vertex="1">
                    <mxGeometry x="820" y="130" width="20" height="20" as="geometry"/>
                </mxCell>
                <mxCell id="563" value="&lt;font color=&quot;#009900&quot;&gt;&amp;gt;&lt;/font&gt;" style="rounded=0;whiteSpace=wrap;html=1;fillColor=#f5f5f5;fontColor=#333333;strokeColor=#666666;" parent="1" vertex="1">
                    <mxGeometry x="840" y="150" width="20" height="20" as="geometry"/>
                </mxCell>
                <mxCell id="564" value="&lt;font color=&quot;#009900&quot;&gt;&amp;gt;&lt;/font&gt;" style="rounded=0;whiteSpace=wrap;html=1;fillColor=#f5f5f5;fontColor=#333333;strokeColor=#666666;" parent="1" vertex="1">
                    <mxGeometry x="860" y="150" width="20" height="20" as="geometry"/>
                </mxCell>
                <mxCell id="565" value="&lt;font color=&quot;#009900&quot;&gt;&amp;gt;&lt;/font&gt;" style="rounded=0;whiteSpace=wrap;html=1;fillColor=#f5f5f5;fontColor=#333333;strokeColor=#666666;" parent="1" vertex="1">
                    <mxGeometry x="880" y="150" width="20" height="20" as="geometry"/>
                </mxCell>
                <mxCell id="566" value="&lt;font color=&quot;#009900&quot;&gt;&amp;gt;&lt;/font&gt;" style="rounded=0;whiteSpace=wrap;html=1;fillColor=#f5f5f5;fontColor=#333333;strokeColor=#666666;" parent="1" vertex="1">
                    <mxGeometry x="900" y="150" width="20" height="20" as="geometry"/>
                </mxCell>
                <mxCell id="567" value="&lt;font color=&quot;#009900&quot;&gt;&amp;gt;&lt;/font&gt;" style="rounded=0;whiteSpace=wrap;html=1;fillColor=#f5f5f5;fontColor=#333333;strokeColor=#666666;" parent="1" vertex="1">
                    <mxGeometry x="840" y="170" width="20" height="20" as="geometry"/>
                </mxCell>
                <mxCell id="568" value="&lt;font color=&quot;#009900&quot;&gt;&amp;gt;&lt;/font&gt;" style="rounded=0;whiteSpace=wrap;html=1;fillColor=#f5f5f5;fontColor=#333333;strokeColor=#666666;" parent="1" vertex="1">
                    <mxGeometry x="860" y="170" width="20" height="20" as="geometry"/>
                </mxCell>
                <mxCell id="569" value="&lt;font color=&quot;#009900&quot;&gt;&amp;gt;&lt;/font&gt;" style="rounded=0;whiteSpace=wrap;html=1;fillColor=#f5f5f5;fontColor=#333333;strokeColor=#666666;" parent="1" vertex="1">
                    <mxGeometry x="880" y="170" width="20" height="20" as="geometry"/>
                </mxCell>
                <mxCell id="570" value="&lt;font color=&quot;#009900&quot;&gt;&amp;gt;&lt;/font&gt;" style="rounded=0;whiteSpace=wrap;html=1;fillColor=#f5f5f5;fontColor=#333333;strokeColor=#666666;" parent="1" vertex="1">
                    <mxGeometry x="900" y="170" width="20" height="20" as="geometry"/>
                </mxCell>
                <mxCell id="571" value="&lt;font color=&quot;#009900&quot;&gt;&amp;gt;&lt;/font&gt;" style="rounded=0;whiteSpace=wrap;html=1;fillColor=#f5f5f5;fontColor=#333333;strokeColor=#666666;" parent="1" vertex="1">
                    <mxGeometry x="840" y="190" width="20" height="20" as="geometry"/>
                </mxCell>
                <mxCell id="572" value="&lt;font color=&quot;#009900&quot;&gt;&amp;gt;&lt;/font&gt;" style="rounded=0;whiteSpace=wrap;html=1;fillColor=#f5f5f5;fontColor=#333333;strokeColor=#666666;" parent="1" vertex="1">
                    <mxGeometry x="860" y="190" width="20" height="20" as="geometry"/>
                </mxCell>
                <mxCell id="573" value="&lt;font color=&quot;#009900&quot;&gt;&amp;gt;&lt;/font&gt;" style="rounded=0;whiteSpace=wrap;html=1;fillColor=#f5f5f5;fontColor=#333333;strokeColor=#666666;" parent="1" vertex="1">
                    <mxGeometry x="880" y="190" width="20" height="20" as="geometry"/>
                </mxCell>
                <mxCell id="574" value="&lt;font color=&quot;#009900&quot;&gt;&amp;gt;&lt;/font&gt;" style="rounded=0;whiteSpace=wrap;html=1;fillColor=#f5f5f5;fontColor=#333333;strokeColor=#666666;" parent="1" vertex="1">
                    <mxGeometry x="900" y="190" width="20" height="20" as="geometry"/>
                </mxCell>
                <mxCell id="575" value="&lt;font color=&quot;#009900&quot;&gt;&amp;gt;&lt;/font&gt;" style="rounded=0;whiteSpace=wrap;html=1;fillColor=#f5f5f5;fontColor=#333333;strokeColor=#666666;" parent="1" vertex="1">
                    <mxGeometry x="840" y="210" width="20" height="20" as="geometry"/>
                </mxCell>
                <mxCell id="576" value="&lt;font color=&quot;#009900&quot;&gt;&amp;gt;&lt;/font&gt;" style="rounded=0;whiteSpace=wrap;html=1;fillColor=#f5f5f5;fontColor=#333333;strokeColor=#666666;" parent="1" vertex="1">
                    <mxGeometry x="860" y="210" width="20" height="20" as="geometry"/>
                </mxCell>
                <mxCell id="577" value="&lt;font color=&quot;#009900&quot;&gt;&amp;gt;&lt;/font&gt;" style="rounded=0;whiteSpace=wrap;html=1;fillColor=#f5f5f5;fontColor=#333333;strokeColor=#666666;" parent="1" vertex="1">
                    <mxGeometry x="880" y="210" width="20" height="20" as="geometry"/>
                </mxCell>
                <mxCell id="578" value="&lt;font color=&quot;#009900&quot;&gt;&amp;gt;&lt;/font&gt;" style="rounded=0;whiteSpace=wrap;html=1;fillColor=#f5f5f5;fontColor=#333333;strokeColor=#666666;" parent="1" vertex="1">
                    <mxGeometry x="900" y="210" width="20" height="20" as="geometry"/>
                </mxCell>
                <mxCell id="579" value="&lt;font color=&quot;#009900&quot;&gt;&amp;gt;&lt;/font&gt;" style="rounded=0;whiteSpace=wrap;html=1;fillColor=#f5f5f5;fontColor=#333333;strokeColor=#666666;" parent="1" vertex="1">
                    <mxGeometry x="920" y="230" width="30" height="20" as="geometry"/>
                </mxCell>
                <mxCell id="580" value="&lt;font color=&quot;#009900&quot;&gt;&amp;gt;&lt;/font&gt;" style="rounded=0;whiteSpace=wrap;html=1;fillColor=#f5f5f5;fontColor=#333333;strokeColor=#666666;" parent="1" vertex="1">
                    <mxGeometry x="950" y="230" width="30" height="20" as="geometry"/>
                </mxCell>
                <mxCell id="581" value="&lt;font color=&quot;#009900&quot;&gt;&amp;gt;&lt;/font&gt;" style="rounded=0;whiteSpace=wrap;html=1;fillColor=#f5f5f5;fontColor=#333333;strokeColor=#666666;" parent="1" vertex="1">
                    <mxGeometry x="920" y="250" width="30" height="20" as="geometry"/>
                </mxCell>
                <mxCell id="582" value="&lt;font color=&quot;#009900&quot;&gt;&amp;gt;&lt;/font&gt;" style="rounded=0;whiteSpace=wrap;html=1;fillColor=#f5f5f5;fontColor=#333333;strokeColor=#666666;" parent="1" vertex="1">
                    <mxGeometry x="950" y="250" width="30" height="20" as="geometry"/>
                </mxCell>
                <mxCell id="413" value="&lt;span style=&quot;color: rgb(255 , 0 , 0)&quot;&gt;$&lt;/span&gt;" style="rounded=0;whiteSpace=wrap;html=1;direction=south;fillColor=#f5f5f5;fontColor=#333333;strokeColor=#666666;" parent="1" vertex="1">
                    <mxGeometry x="1040" y="30" width="20" height="20" as="geometry"/>
                </mxCell>
                <mxCell id="586" value="&lt;font color=&quot;#ffb366&quot;&gt;id&lt;/font&gt;" style="rounded=0;whiteSpace=wrap;html=1;fillColor=#f5f5f5;fontColor=#333333;strokeColor=#666666;" parent="1" vertex="1">
                    <mxGeometry x="720" y="310" width="20" height="20" as="geometry"/>
                </mxCell>
                <mxCell id="587" value="&lt;font color=&quot;#009900&quot;&gt;&amp;gt;&lt;/font&gt;" style="rounded=0;whiteSpace=wrap;html=1;fillColor=#f5f5f5;fontColor=#333333;strokeColor=#666666;" parent="1" vertex="1">
                    <mxGeometry x="780" y="310" width="20" height="20" as="geometry"/>
                </mxCell>
                <mxCell id="588" value="&lt;font color=&quot;#009900&quot;&gt;&amp;gt;&lt;/font&gt;" style="rounded=0;whiteSpace=wrap;html=1;fillColor=#f5f5f5;fontColor=#333333;strokeColor=#666666;" parent="1" vertex="1">
                    <mxGeometry x="800" y="310" width="20" height="20" as="geometry"/>
                </mxCell>
                <mxCell id="589" value="&lt;font color=&quot;#009900&quot;&gt;&amp;gt;&lt;/font&gt;" style="rounded=0;whiteSpace=wrap;html=1;fillColor=#f5f5f5;fontColor=#333333;strokeColor=#666666;" parent="1" vertex="1">
                    <mxGeometry x="820" y="310" width="20" height="20" as="geometry"/>
                </mxCell>
                <mxCell id="590" value="&lt;font color=&quot;#009900&quot;&gt;&amp;gt;&lt;/font&gt;" style="rounded=0;whiteSpace=wrap;html=1;fillColor=#f5f5f5;fontColor=#333333;strokeColor=#666666;" parent="1" vertex="1">
                    <mxGeometry x="840" y="310" width="20" height="20" as="geometry"/>
                </mxCell>
                <mxCell id="591" value="&lt;font color=&quot;#009900&quot;&gt;&amp;gt;&lt;/font&gt;" style="rounded=0;whiteSpace=wrap;html=1;fillColor=#f5f5f5;fontColor=#333333;strokeColor=#666666;" parent="1" vertex="1">
                    <mxGeometry x="860" y="310" width="20" height="20" as="geometry"/>
                </mxCell>
                <mxCell id="592" value="&lt;font color=&quot;#009900&quot;&gt;&amp;gt;&lt;/font&gt;" style="rounded=0;whiteSpace=wrap;html=1;fillColor=#f5f5f5;fontColor=#333333;strokeColor=#666666;" parent="1" vertex="1">
                    <mxGeometry x="880" y="310" width="20" height="20" as="geometry"/>
                </mxCell>
                <mxCell id="593" value="&lt;font color=&quot;#009900&quot;&gt;&amp;gt;&lt;/font&gt;" style="rounded=0;whiteSpace=wrap;html=1;fillColor=#f5f5f5;fontColor=#333333;strokeColor=#666666;" parent="1" vertex="1">
                    <mxGeometry x="900" y="310" width="20" height="20" as="geometry"/>
                </mxCell>
                <mxCell id="594" value="&lt;font color=&quot;#009900&quot;&gt;&amp;gt;&lt;/font&gt;" style="rounded=0;whiteSpace=wrap;html=1;fillColor=#f5f5f5;fontColor=#333333;strokeColor=#666666;" parent="1" vertex="1">
                    <mxGeometry x="920" y="310" width="30" height="20" as="geometry"/>
                </mxCell>
                <mxCell id="595" value="&lt;font color=&quot;#009900&quot;&gt;&amp;gt;&lt;/font&gt;" style="rounded=0;whiteSpace=wrap;html=1;fillColor=#f5f5f5;fontColor=#333333;strokeColor=#666666;" parent="1" vertex="1">
                    <mxGeometry x="950" y="310" width="30" height="20" as="geometry"/>
                </mxCell>
                <mxCell id="596" value="&lt;font color=&quot;#009900&quot;&gt;&amp;gt;&lt;/font&gt;" style="rounded=0;whiteSpace=wrap;html=1;fillColor=#f5f5f5;fontColor=#333333;strokeColor=#666666;" parent="1" vertex="1">
                    <mxGeometry x="740" y="310" width="20" height="20" as="geometry"/>
                </mxCell>
                <mxCell id="597" value="&lt;font color=&quot;#009900&quot;&gt;&amp;gt;&lt;/font&gt;" style="rounded=0;whiteSpace=wrap;html=1;fillColor=#f5f5f5;fontColor=#333333;strokeColor=#666666;" parent="1" vertex="1">
                    <mxGeometry x="760" y="310" width="20" height="20" as="geometry"/>
                </mxCell>
                <mxCell id="598" value="&lt;font color=&quot;#009900&quot;&gt;&amp;lt;&lt;/font&gt;" style="rounded=0;whiteSpace=wrap;html=1;fillColor=#f5f5f5;fontColor=#333333;strokeColor=#666666;" parent="1" vertex="1">
                    <mxGeometry x="1020" y="50" width="20" height="20" as="geometry"/>
                </mxCell>
                <mxCell id="599" value="&lt;font color=&quot;#009900&quot;&gt;&amp;lt;&lt;/font&gt;" style="rounded=0;whiteSpace=wrap;html=1;fillColor=#f5f5f5;fontColor=#333333;strokeColor=#666666;" parent="1" vertex="1">
                    <mxGeometry x="1020" y="70" width="20" height="20" as="geometry"/>
                </mxCell>
                <mxCell id="600" value="&lt;font color=&quot;#009900&quot;&gt;&amp;lt;&lt;/font&gt;" style="rounded=0;whiteSpace=wrap;html=1;fillColor=#f5f5f5;fontColor=#333333;strokeColor=#666666;" parent="1" vertex="1">
                    <mxGeometry x="1020" y="150" width="20" height="20" as="geometry"/>
                </mxCell>
                <mxCell id="601" value="&lt;font color=&quot;#009900&quot;&gt;&amp;lt;&lt;/font&gt;" style="rounded=0;whiteSpace=wrap;html=1;fillColor=#f5f5f5;fontColor=#333333;strokeColor=#666666;" parent="1" vertex="1">
                    <mxGeometry x="1020" y="90" width="20" height="20" as="geometry"/>
                </mxCell>
                <mxCell id="602" value="&lt;font color=&quot;#009900&quot;&gt;&amp;lt;&lt;/font&gt;" style="rounded=0;whiteSpace=wrap;html=1;fillColor=#f5f5f5;fontColor=#333333;strokeColor=#666666;" parent="1" vertex="1">
                    <mxGeometry x="1020" y="110" width="20" height="20" as="geometry"/>
                </mxCell>
                <mxCell id="603" value="&lt;font color=&quot;#009900&quot;&gt;&amp;lt;&lt;/font&gt;" style="rounded=0;whiteSpace=wrap;html=1;fillColor=#f5f5f5;fontColor=#333333;strokeColor=#666666;" parent="1" vertex="1">
                    <mxGeometry x="1020" y="130" width="20" height="20" as="geometry"/>
                </mxCell>
                <mxCell id="604" value="&lt;font color=&quot;#009900&quot;&gt;&amp;lt;&lt;/font&gt;" style="rounded=0;whiteSpace=wrap;html=1;fillColor=#f5f5f5;fontColor=#333333;strokeColor=#666666;" parent="1" vertex="1">
                    <mxGeometry x="1020" y="170" width="20" height="20" as="geometry"/>
                </mxCell>
                <mxCell id="605" value="&lt;font color=&quot;#009900&quot;&gt;&amp;lt;&lt;/font&gt;" style="rounded=0;whiteSpace=wrap;html=1;fillColor=#f5f5f5;fontColor=#333333;strokeColor=#666666;" parent="1" vertex="1">
                    <mxGeometry x="1020" y="190" width="20" height="20" as="geometry"/>
                </mxCell>
                <mxCell id="606" value="&lt;font color=&quot;#009900&quot;&gt;&amp;lt;&lt;/font&gt;" style="rounded=0;whiteSpace=wrap;html=1;fillColor=#f5f5f5;fontColor=#333333;strokeColor=#666666;" parent="1" vertex="1">
                    <mxGeometry x="1020" y="210" width="20" height="20" as="geometry"/>
                </mxCell>
                <mxCell id="607" value="&lt;font color=&quot;#009900&quot;&gt;&amp;lt;&lt;/font&gt;" style="rounded=0;whiteSpace=wrap;html=1;fillColor=#f5f5f5;fontColor=#333333;strokeColor=#666666;" parent="1" vertex="1">
                    <mxGeometry x="1020" y="230" width="20" height="20" as="geometry"/>
                </mxCell>
                <mxCell id="608" value="&lt;font color=&quot;#009900&quot;&gt;&amp;lt;&lt;/font&gt;" style="rounded=0;whiteSpace=wrap;html=1;fillColor=#f5f5f5;fontColor=#333333;strokeColor=#666666;" parent="1" vertex="1">
                    <mxGeometry x="1020" y="250" width="20" height="20" as="geometry"/>
                </mxCell>
                <mxCell id="609" value="&lt;font color=&quot;#009900&quot;&gt;&amp;gt;&lt;/font&gt;" style="rounded=0;whiteSpace=wrap;html=1;fillColor=#f5f5f5;fontColor=#333333;strokeColor=#666666;" parent="1" vertex="1">
                    <mxGeometry x="1000" y="310" width="20" height="20" as="geometry"/>
                </mxCell>
                <mxCell id="611" value="&lt;font color=&quot;#009900&quot;&gt;&amp;gt;&lt;/font&gt;" style="rounded=0;whiteSpace=wrap;html=1;fillColor=#f5f5f5;fontColor=#333333;strokeColor=#666666;" parent="1" vertex="1">
                    <mxGeometry x="1040" y="310" width="20" height="20" as="geometry"/>
                </mxCell>
                <mxCell id="612" value="&lt;font color=&quot;#009900&quot;&gt;&amp;lt;&lt;/font&gt;" style="rounded=0;whiteSpace=wrap;html=1;fillColor=#f5f5f5;fontColor=#333333;strokeColor=#666666;" parent="1" vertex="1">
                    <mxGeometry x="1020" y="270" width="20" height="20" as="geometry"/>
                </mxCell>
                <mxCell id="613" value="&lt;font color=&quot;#009900&quot;&gt;&amp;lt;&lt;/font&gt;" style="rounded=0;whiteSpace=wrap;html=1;fillColor=#f5f5f5;fontColor=#333333;strokeColor=#666666;" parent="1" vertex="1">
                    <mxGeometry x="1020" y="330" width="20" height="20" as="geometry"/>
                </mxCell>
                <mxCell id="614" value="&lt;font color=&quot;#009900&quot;&gt;=&lt;/font&gt;" style="rounded=0;whiteSpace=wrap;html=1;fillColor=#f5f5f5;fontColor=#333333;strokeColor=#666666;" parent="1" vertex="1">
                    <mxGeometry x="1000" y="270" width="20" height="20" as="geometry"/>
                </mxCell>
                <mxCell id="618" value="&lt;font color=&quot;#009900&quot;&gt;&amp;lt;&lt;/font&gt;" style="rounded=0;whiteSpace=wrap;html=1;fillColor=#f5f5f5;fontColor=#333333;strokeColor=#666666;" parent="1" vertex="1">
                    <mxGeometry x="980" y="50" width="20" height="20" as="geometry"/>
                </mxCell>
                <mxCell id="619" value="&lt;font color=&quot;#009900&quot;&gt;&amp;lt;&lt;/font&gt;" style="rounded=0;whiteSpace=wrap;html=1;fillColor=#f5f5f5;fontColor=#333333;strokeColor=#666666;" parent="1" vertex="1">
                    <mxGeometry x="980" y="70" width="20" height="20" as="geometry"/>
                </mxCell>
                <mxCell id="620" value="&lt;font color=&quot;#009900&quot;&gt;&amp;lt;&lt;/font&gt;" style="rounded=0;whiteSpace=wrap;html=1;fillColor=#f5f5f5;fontColor=#333333;strokeColor=#666666;" parent="1" vertex="1">
                    <mxGeometry x="980" y="150" width="20" height="20" as="geometry"/>
                </mxCell>
                <mxCell id="621" value="&lt;font color=&quot;#009900&quot;&gt;&amp;lt;&lt;/font&gt;" style="rounded=0;whiteSpace=wrap;html=1;fillColor=#f5f5f5;fontColor=#333333;strokeColor=#666666;" parent="1" vertex="1">
                    <mxGeometry x="980" y="90" width="20" height="20" as="geometry"/>
                </mxCell>
                <mxCell id="622" value="&lt;font color=&quot;#009900&quot;&gt;&amp;lt;&lt;/font&gt;" style="rounded=0;whiteSpace=wrap;html=1;fillColor=#f5f5f5;fontColor=#333333;strokeColor=#666666;" parent="1" vertex="1">
                    <mxGeometry x="980" y="110" width="20" height="20" as="geometry"/>
                </mxCell>
                <mxCell id="623" value="&lt;font color=&quot;#009900&quot;&gt;&amp;lt;&lt;/font&gt;" style="rounded=0;whiteSpace=wrap;html=1;fillColor=#f5f5f5;fontColor=#333333;strokeColor=#666666;" parent="1" vertex="1">
                    <mxGeometry x="980" y="130" width="20" height="20" as="geometry"/>
                </mxCell>
                <mxCell id="624" value="&lt;font color=&quot;#009900&quot;&gt;&amp;lt;&lt;/font&gt;" style="rounded=0;whiteSpace=wrap;html=1;fillColor=#f5f5f5;fontColor=#333333;strokeColor=#666666;" parent="1" vertex="1">
                    <mxGeometry x="980" y="170" width="20" height="20" as="geometry"/>
                </mxCell>
                <mxCell id="625" value="&lt;font color=&quot;#009900&quot;&gt;&amp;lt;&lt;/font&gt;" style="rounded=0;whiteSpace=wrap;html=1;fillColor=#f5f5f5;fontColor=#333333;strokeColor=#666666;" parent="1" vertex="1">
                    <mxGeometry x="980" y="190" width="20" height="20" as="geometry"/>
                </mxCell>
                <mxCell id="626" value="&lt;font color=&quot;#009900&quot;&gt;&amp;lt;&lt;/font&gt;" style="rounded=0;whiteSpace=wrap;html=1;fillColor=#f5f5f5;fontColor=#333333;strokeColor=#666666;" parent="1" vertex="1">
                    <mxGeometry x="980" y="210" width="20" height="20" as="geometry"/>
                </mxCell>
                <mxCell id="627" value="&lt;font color=&quot;#009900&quot;&gt;&amp;lt;&lt;/font&gt;" style="rounded=0;whiteSpace=wrap;html=1;fillColor=#f5f5f5;fontColor=#333333;strokeColor=#666666;" parent="1" vertex="1">
                    <mxGeometry x="980" y="230" width="20" height="20" as="geometry"/>
                </mxCell>
                <mxCell id="628" value="&lt;font color=&quot;#009900&quot;&gt;&amp;lt;&lt;/font&gt;" style="rounded=0;whiteSpace=wrap;html=1;fillColor=#f5f5f5;fontColor=#333333;strokeColor=#666666;" parent="1" vertex="1">
                    <mxGeometry x="980" y="250" width="20" height="20" as="geometry"/>
                </mxCell>
                <mxCell id="630" value="&lt;font color=&quot;#009900&quot;&gt;&amp;lt;&lt;/font&gt;" style="rounded=0;whiteSpace=wrap;html=1;fillColor=#f5f5f5;fontColor=#333333;strokeColor=#666666;" parent="1" vertex="1">
                    <mxGeometry x="980" y="330" width="20" height="20" as="geometry"/>
                </mxCell>
                <mxCell id="631" value="&lt;font color=&quot;#009900&quot;&gt;&amp;lt;&lt;/font&gt;" style="rounded=0;whiteSpace=wrap;html=1;fillColor=#f5f5f5;fontColor=#333333;strokeColor=#666666;" parent="1" vertex="1">
                    <mxGeometry x="980" y="270" width="20" height="20" as="geometry"/>
                </mxCell>
                <mxCell id="632" value="&lt;font color=&quot;#009900&quot;&gt;&amp;lt;&lt;/font&gt;" style="rounded=0;whiteSpace=wrap;html=1;fillColor=#f5f5f5;fontColor=#333333;strokeColor=#666666;" parent="1" vertex="1">
                    <mxGeometry x="740" y="270" width="20" height="20" as="geometry"/>
                </mxCell>
                <mxCell id="633" value="&lt;font color=&quot;#009900&quot;&gt;&amp;lt;&lt;/font&gt;" style="rounded=0;whiteSpace=wrap;html=1;fillColor=#f5f5f5;fontColor=#333333;strokeColor=#666666;" parent="1" vertex="1">
                    <mxGeometry x="760" y="270" width="20" height="20" as="geometry"/>
                </mxCell>
                <mxCell id="634" value="&lt;font color=&quot;#009900&quot;&gt;&amp;lt;&lt;/font&gt;" style="rounded=0;whiteSpace=wrap;html=1;fillColor=#f5f5f5;fontColor=#333333;strokeColor=#666666;" parent="1" vertex="1">
                    <mxGeometry x="780" y="270" width="20" height="20" as="geometry"/>
                </mxCell>
                <mxCell id="635" value="&lt;font color=&quot;#009900&quot;&gt;&amp;lt;&lt;/font&gt;" style="rounded=0;whiteSpace=wrap;html=1;fillColor=#f5f5f5;fontColor=#333333;strokeColor=#666666;" parent="1" vertex="1">
                    <mxGeometry x="800" y="270" width="20" height="20" as="geometry"/>
                </mxCell>
                <mxCell id="636" value="&lt;font color=&quot;#009900&quot;&gt;&amp;lt;&lt;/font&gt;" style="rounded=0;whiteSpace=wrap;html=1;fillColor=#f5f5f5;fontColor=#333333;strokeColor=#666666;" parent="1" vertex="1">
                    <mxGeometry x="820" y="270" width="20" height="20" as="geometry"/>
                </mxCell>
                <mxCell id="637" value="&lt;font color=&quot;#009900&quot;&gt;&amp;lt;&lt;/font&gt;" style="rounded=0;whiteSpace=wrap;html=1;fillColor=#f5f5f5;fontColor=#333333;strokeColor=#666666;" parent="1" vertex="1">
                    <mxGeometry x="880" y="270" width="20" height="20" as="geometry"/>
                </mxCell>
                <mxCell id="638" value="&lt;font color=&quot;#009900&quot;&gt;&amp;lt;&lt;/font&gt;" style="rounded=0;whiteSpace=wrap;html=1;fillColor=#f5f5f5;fontColor=#333333;strokeColor=#666666;" parent="1" vertex="1">
                    <mxGeometry x="900" y="270" width="20" height="20" as="geometry"/>
                </mxCell>
                <mxCell id="642" value="&lt;font color=&quot;#009900&quot;&gt;&amp;lt;&lt;/font&gt;" style="rounded=0;whiteSpace=wrap;html=1;fillColor=#f5f5f5;fontColor=#333333;strokeColor=#666666;" parent="1" vertex="1">
                    <mxGeometry x="840" y="270" width="20" height="20" as="geometry"/>
                </mxCell>
                <mxCell id="643" value="&lt;font color=&quot;#009900&quot;&gt;&amp;lt;&lt;/font&gt;" style="rounded=0;whiteSpace=wrap;html=1;fillColor=#f5f5f5;fontColor=#333333;strokeColor=#666666;" parent="1" vertex="1">
                    <mxGeometry x="860" y="270" width="20" height="20" as="geometry"/>
                </mxCell>
                <mxCell id="644" value="&lt;font color=&quot;#009900&quot;&gt;&amp;lt;&lt;/font&gt;" style="rounded=0;whiteSpace=wrap;html=1;fillColor=#f5f5f5;fontColor=#333333;strokeColor=#666666;" parent="1" vertex="1">
                    <mxGeometry x="920" y="270" width="30" height="20" as="geometry"/>
                </mxCell>
                <mxCell id="646" value="&lt;font color=&quot;#009900&quot;&gt;&amp;lt;&lt;/font&gt;" style="rounded=0;whiteSpace=wrap;html=1;fillColor=#f5f5f5;fontColor=#333333;strokeColor=#666666;" parent="1" vertex="1">
                    <mxGeometry x="950" y="270" width="30" height="20" as="geometry"/>
                </mxCell>
                <mxCell id="647" value="&lt;font color=&quot;#009900&quot;&gt;&amp;gt;&lt;/font&gt;" style="rounded=0;whiteSpace=wrap;html=1;fillColor=#f5f5f5;fontColor=#333333;strokeColor=#666666;" parent="1" vertex="1">
                    <mxGeometry x="1000" y="50" width="20" height="20" as="geometry"/>
                </mxCell>
                <mxCell id="648" value="&lt;font color=&quot;#009900&quot;&gt;&amp;gt;&lt;/font&gt;" style="rounded=0;whiteSpace=wrap;html=1;fillColor=#f5f5f5;fontColor=#333333;strokeColor=#666666;" parent="1" vertex="1">
                    <mxGeometry x="1000" y="70" width="20" height="20" as="geometry"/>
                </mxCell>
                <mxCell id="649" value="&lt;font color=&quot;#009900&quot;&gt;&amp;gt;&lt;/font&gt;" style="rounded=0;whiteSpace=wrap;html=1;fillColor=#f5f5f5;fontColor=#333333;strokeColor=#666666;" parent="1" vertex="1">
                    <mxGeometry x="1000" y="90" width="20" height="20" as="geometry"/>
                </mxCell>
                <mxCell id="650" value="&lt;font color=&quot;#009900&quot;&gt;&amp;gt;&lt;/font&gt;" style="rounded=0;whiteSpace=wrap;html=1;fillColor=#f5f5f5;fontColor=#333333;strokeColor=#666666;" parent="1" vertex="1">
                    <mxGeometry x="1000" y="110" width="20" height="20" as="geometry"/>
                </mxCell>
                <mxCell id="651" value="&lt;font color=&quot;#009900&quot;&gt;&amp;gt;&lt;/font&gt;" style="rounded=0;whiteSpace=wrap;html=1;fillColor=#f5f5f5;fontColor=#333333;strokeColor=#666666;" parent="1" vertex="1">
                    <mxGeometry x="1000" y="130" width="20" height="20" as="geometry"/>
                </mxCell>
                <mxCell id="654" value="&lt;font color=&quot;#009900&quot;&gt;&amp;gt;&lt;/font&gt;" style="rounded=0;whiteSpace=wrap;html=1;fillColor=#f5f5f5;fontColor=#333333;strokeColor=#666666;" parent="1" vertex="1">
                    <mxGeometry x="1000" y="150" width="20" height="20" as="geometry"/>
                </mxCell>
                <mxCell id="655" value="&lt;font color=&quot;#009900&quot;&gt;&amp;gt;&lt;/font&gt;" style="rounded=0;whiteSpace=wrap;html=1;fillColor=#f5f5f5;fontColor=#333333;strokeColor=#666666;" parent="1" vertex="1">
                    <mxGeometry x="1000" y="170" width="20" height="20" as="geometry"/>
                </mxCell>
                <mxCell id="656" value="&lt;font color=&quot;#009900&quot;&gt;&amp;gt;&lt;/font&gt;" style="rounded=0;whiteSpace=wrap;html=1;fillColor=#f5f5f5;fontColor=#333333;strokeColor=#666666;" parent="1" vertex="1">
                    <mxGeometry x="1000" y="190" width="20" height="20" as="geometry"/>
                </mxCell>
                <mxCell id="657" value="&lt;font color=&quot;#009900&quot;&gt;&amp;gt;&lt;/font&gt;" style="rounded=0;whiteSpace=wrap;html=1;fillColor=#f5f5f5;fontColor=#333333;strokeColor=#666666;" parent="1" vertex="1">
                    <mxGeometry x="1000" y="210" width="20" height="20" as="geometry"/>
                </mxCell>
                <mxCell id="659" value="&lt;font color=&quot;#009900&quot;&gt;&amp;gt;&lt;/font&gt;" style="rounded=0;whiteSpace=wrap;html=1;fillColor=#f5f5f5;fontColor=#333333;strokeColor=#666666;" parent="1" vertex="1">
                    <mxGeometry x="1000" y="230" width="20" height="20" as="geometry"/>
                </mxCell>
                <mxCell id="660" value="&lt;font color=&quot;#009900&quot;&gt;&amp;gt;&lt;/font&gt;" style="rounded=0;whiteSpace=wrap;html=1;fillColor=#f5f5f5;fontColor=#333333;strokeColor=#666666;" parent="1" vertex="1">
                    <mxGeometry x="1000" y="250" width="20" height="20" as="geometry"/>
                </mxCell>
                <mxCell id="661" value="&lt;font color=&quot;#009900&quot;&gt;&amp;gt;&lt;/font&gt;" style="rounded=0;whiteSpace=wrap;html=1;fillColor=#f5f5f5;fontColor=#333333;strokeColor=#666666;" parent="1" vertex="1">
                    <mxGeometry x="1000" y="290" width="20" height="20" as="geometry"/>
                </mxCell>
                <mxCell id="662" value="&lt;font color=&quot;#009900&quot;&gt;&amp;gt;&lt;/font&gt;" style="rounded=0;whiteSpace=wrap;html=1;fillColor=#f5f5f5;fontColor=#333333;strokeColor=#666666;" parent="1" vertex="1">
                    <mxGeometry x="780" y="290" width="20" height="20" as="geometry"/>
                </mxCell>
                <mxCell id="663" value="&lt;font color=&quot;#009900&quot;&gt;&amp;gt;&lt;/font&gt;" style="rounded=0;whiteSpace=wrap;html=1;fillColor=#f5f5f5;fontColor=#333333;strokeColor=#666666;" parent="1" vertex="1">
                    <mxGeometry x="800" y="290" width="20" height="20" as="geometry"/>
                </mxCell>
                <mxCell id="664" value="&lt;font color=&quot;#009900&quot;&gt;&amp;gt;&lt;/font&gt;" style="rounded=0;whiteSpace=wrap;html=1;fillColor=#f5f5f5;fontColor=#333333;strokeColor=#666666;" parent="1" vertex="1">
                    <mxGeometry x="820" y="290" width="20" height="20" as="geometry"/>
                </mxCell>
                <mxCell id="665" value="&lt;font color=&quot;#009900&quot;&gt;&amp;gt;&lt;/font&gt;" style="rounded=0;whiteSpace=wrap;html=1;fillColor=#f5f5f5;fontColor=#333333;strokeColor=#666666;" parent="1" vertex="1">
                    <mxGeometry x="840" y="290" width="20" height="20" as="geometry"/>
                </mxCell>
                <mxCell id="666" value="&lt;font color=&quot;#009900&quot;&gt;&amp;gt;&lt;/font&gt;" style="rounded=0;whiteSpace=wrap;html=1;fillColor=#f5f5f5;fontColor=#333333;strokeColor=#666666;" parent="1" vertex="1">
                    <mxGeometry x="860" y="290" width="20" height="20" as="geometry"/>
                </mxCell>
                <mxCell id="667" value="&lt;font color=&quot;#009900&quot;&gt;&amp;gt;&lt;/font&gt;" style="rounded=0;whiteSpace=wrap;html=1;fillColor=#f5f5f5;fontColor=#333333;strokeColor=#666666;" parent="1" vertex="1">
                    <mxGeometry x="880" y="290" width="20" height="20" as="geometry"/>
                </mxCell>
                <mxCell id="668" value="&lt;font color=&quot;#009900&quot;&gt;&amp;gt;&lt;/font&gt;" style="rounded=0;whiteSpace=wrap;html=1;fillColor=#f5f5f5;fontColor=#333333;strokeColor=#666666;" parent="1" vertex="1">
                    <mxGeometry x="900" y="290" width="20" height="20" as="geometry"/>
                </mxCell>
                <mxCell id="669" value="&lt;font color=&quot;#009900&quot;&gt;&amp;gt;&lt;/font&gt;" style="rounded=0;whiteSpace=wrap;html=1;fillColor=#f5f5f5;fontColor=#333333;strokeColor=#666666;" parent="1" vertex="1">
                    <mxGeometry x="920" y="290" width="30" height="20" as="geometry"/>
                </mxCell>
                <mxCell id="670" value="&lt;font color=&quot;#009900&quot;&gt;&amp;gt;&lt;/font&gt;" style="rounded=0;whiteSpace=wrap;html=1;fillColor=#f5f5f5;fontColor=#333333;strokeColor=#666666;" parent="1" vertex="1">
                    <mxGeometry x="950" y="290" width="30" height="20" as="geometry"/>
                </mxCell>
                <mxCell id="671" value="&lt;font color=&quot;#009900&quot;&gt;&amp;gt;&lt;/font&gt;" style="rounded=0;whiteSpace=wrap;html=1;fillColor=#f5f5f5;fontColor=#333333;strokeColor=#666666;" parent="1" vertex="1">
                    <mxGeometry x="760" y="290" width="20" height="20" as="geometry"/>
                </mxCell>
                <mxCell id="672" value="&lt;font color=&quot;#009900&quot;&gt;&amp;gt;&lt;/font&gt;" style="rounded=0;whiteSpace=wrap;html=1;fillColor=#f5f5f5;fontColor=#333333;strokeColor=#666666;" parent="1" vertex="1">
                    <mxGeometry x="740" y="290" width="20" height="20" as="geometry"/>
                </mxCell>
                <mxCell id="682" value="" style="group;rotation=-180;fillColor=#f5f5f5;fontColor=#333333;strokeColor=#666666;" parent="1" vertex="1" connectable="0">
                    <mxGeometry x="740" y="330" width="160" height="20" as="geometry"/>
                </mxCell>
                <mxCell id="674" value="&lt;font color=&quot;#009900&quot;&gt;&amp;gt;&lt;/font&gt;" style="rounded=0;whiteSpace=wrap;html=1;rotation=-180;fillColor=#f5f5f5;fontColor=#333333;strokeColor=#666666;" parent="682" vertex="1">
                    <mxGeometry x="120" width="20" height="20" as="geometry"/>
                </mxCell>
                <mxCell id="675" value="&lt;font color=&quot;#009900&quot;&gt;&amp;gt;&lt;/font&gt;" style="rounded=0;whiteSpace=wrap;html=1;rotation=-180;fillColor=#f5f5f5;fontColor=#333333;strokeColor=#666666;" parent="682" vertex="1">
                    <mxGeometry x="100" width="20" height="20" as="geometry"/>
                </mxCell>
                <mxCell id="676" value="&lt;font color=&quot;#009900&quot;&gt;&amp;gt;&lt;/font&gt;" style="rounded=0;whiteSpace=wrap;html=1;rotation=-180;fillColor=#f5f5f5;fontColor=#333333;strokeColor=#666666;" parent="682" vertex="1">
                    <mxGeometry x="80" width="20" height="20" as="geometry"/>
                </mxCell>
                <mxCell id="677" value="&lt;font color=&quot;#009900&quot;&gt;&amp;gt;&lt;/font&gt;" style="rounded=0;whiteSpace=wrap;html=1;rotation=-180;fillColor=#f5f5f5;fontColor=#333333;strokeColor=#666666;" parent="682" vertex="1">
                    <mxGeometry x="60" width="20" height="20" as="geometry"/>
                </mxCell>
                <mxCell id="678" value="&lt;font color=&quot;#009900&quot;&gt;&amp;gt;&lt;/font&gt;" style="rounded=0;whiteSpace=wrap;html=1;rotation=-180;fillColor=#f5f5f5;fontColor=#333333;strokeColor=#666666;" parent="682" vertex="1">
                    <mxGeometry x="40" width="20" height="20" as="geometry"/>
                </mxCell>
                <mxCell id="679" value="&lt;font color=&quot;#009900&quot;&gt;&amp;gt;&lt;/font&gt;" style="rounded=0;whiteSpace=wrap;html=1;rotation=-180;fillColor=#f5f5f5;fontColor=#333333;strokeColor=#666666;" parent="682" vertex="1">
                    <mxGeometry x="20" width="20" height="20" as="geometry"/>
                </mxCell>
                <mxCell id="680" value="&lt;font color=&quot;#009900&quot;&gt;&amp;gt;&lt;/font&gt;" style="rounded=0;whiteSpace=wrap;html=1;rotation=-180;fillColor=#f5f5f5;fontColor=#333333;strokeColor=#666666;" parent="682" vertex="1">
                    <mxGeometry width="20" height="20" as="geometry"/>
                </mxCell>
                <mxCell id="681" value="&lt;font color=&quot;#009900&quot;&gt;&amp;gt;&lt;/font&gt;" style="rounded=0;whiteSpace=wrap;html=1;rotation=-180;fillColor=#f5f5f5;fontColor=#333333;strokeColor=#666666;" parent="682" vertex="1">
                    <mxGeometry x="140" width="20" height="20" as="geometry"/>
                </mxCell>
                <mxCell id="702" value="&lt;font color=&quot;#009900&quot;&gt;&amp;lt;&lt;/font&gt;" style="rounded=0;whiteSpace=wrap;html=1;fillColor=#f5f5f5;fontColor=#333333;strokeColor=#666666;" parent="1" vertex="1">
                    <mxGeometry x="900" y="330" width="20" height="20" as="geometry"/>
                </mxCell>
                <mxCell id="704" value="&lt;font color=&quot;#009900&quot;&gt;&amp;lt;&lt;/font&gt;" style="rounded=0;whiteSpace=wrap;html=1;fillColor=#f5f5f5;fontColor=#333333;strokeColor=#666666;" parent="1" vertex="1">
                    <mxGeometry x="950" y="330" width="30" height="20" as="geometry"/>
                </mxCell>
                <mxCell id="705" value="&lt;font color=&quot;#009900&quot;&gt;&amp;lt;&lt;/font&gt;" style="rounded=0;whiteSpace=wrap;html=1;fillColor=#f5f5f5;fontColor=#333333;strokeColor=#666666;" parent="1" vertex="1">
                    <mxGeometry x="920" y="330" width="30" height="20" as="geometry"/>
                </mxCell>
                <mxCell id="718" value="&lt;font color=&quot;#009900&quot;&gt;&amp;lt;&lt;/font&gt;" style="rounded=0;whiteSpace=wrap;html=1;rotation=-180;fillColor=#f5f5f5;fontColor=#333333;strokeColor=#666666;" parent="1" vertex="1">
                    <mxGeometry x="1040" y="290" width="20" height="20" as="geometry"/>
                </mxCell>
                <mxCell id="719" value="&lt;font color=&quot;#009900&quot;&gt;&amp;lt;&lt;/font&gt;" style="rounded=0;whiteSpace=wrap;html=1;rotation=-180;fillColor=#f5f5f5;fontColor=#333333;strokeColor=#666666;" parent="1" vertex="1">
                    <mxGeometry x="1040" y="250" width="20" height="20" as="geometry"/>
                </mxCell>
                <mxCell id="720" value="&lt;font color=&quot;#009900&quot;&gt;&amp;lt;&lt;/font&gt;" style="rounded=0;whiteSpace=wrap;html=1;rotation=-180;fillColor=#f5f5f5;fontColor=#333333;strokeColor=#666666;" parent="1" vertex="1">
                    <mxGeometry x="1040" y="170" width="20" height="20" as="geometry"/>
                </mxCell>
                <mxCell id="721" value="&lt;font color=&quot;#009900&quot;&gt;&amp;lt;&lt;/font&gt;" style="rounded=0;whiteSpace=wrap;html=1;rotation=-180;fillColor=#f5f5f5;fontColor=#333333;strokeColor=#666666;" parent="1" vertex="1">
                    <mxGeometry x="1040" y="230" width="20" height="20" as="geometry"/>
                </mxCell>
                <mxCell id="722" value="&lt;font color=&quot;#009900&quot;&gt;&amp;lt;&lt;/font&gt;" style="rounded=0;whiteSpace=wrap;html=1;rotation=-180;fillColor=#f5f5f5;fontColor=#333333;strokeColor=#666666;" parent="1" vertex="1">
                    <mxGeometry x="1040" y="210" width="20" height="20" as="geometry"/>
                </mxCell>
                <mxCell id="723" value="&lt;font color=&quot;#009900&quot;&gt;&amp;lt;&lt;/font&gt;" style="rounded=0;whiteSpace=wrap;html=1;rotation=-180;fillColor=#f5f5f5;fontColor=#333333;strokeColor=#666666;" parent="1" vertex="1">
                    <mxGeometry x="1040" y="190" width="20" height="20" as="geometry"/>
                </mxCell>
                <mxCell id="724" value="&lt;font color=&quot;#009900&quot;&gt;&amp;lt;&lt;/font&gt;" style="rounded=0;whiteSpace=wrap;html=1;rotation=-180;fillColor=#f5f5f5;fontColor=#333333;strokeColor=#666666;" parent="1" vertex="1">
                    <mxGeometry x="1040" y="150" width="20" height="20" as="geometry"/>
                </mxCell>
                <mxCell id="725" value="&lt;font color=&quot;#009900&quot;&gt;&amp;lt;&lt;/font&gt;" style="rounded=0;whiteSpace=wrap;html=1;rotation=-180;fillColor=#f5f5f5;fontColor=#333333;strokeColor=#666666;" parent="1" vertex="1">
                    <mxGeometry x="1040" y="130" width="20" height="20" as="geometry"/>
                </mxCell>
                <mxCell id="726" value="&lt;font color=&quot;#009900&quot;&gt;&amp;lt;&lt;/font&gt;" style="rounded=0;whiteSpace=wrap;html=1;rotation=-180;fillColor=#f5f5f5;fontColor=#333333;strokeColor=#666666;" parent="1" vertex="1">
                    <mxGeometry x="1040" y="110" width="20" height="20" as="geometry"/>
                </mxCell>
                <mxCell id="727" value="&lt;font color=&quot;#009900&quot;&gt;&amp;lt;&lt;/font&gt;" style="rounded=0;whiteSpace=wrap;html=1;rotation=-180;fillColor=#f5f5f5;fontColor=#333333;strokeColor=#666666;" parent="1" vertex="1">
                    <mxGeometry x="1040" y="90" width="20" height="20" as="geometry"/>
                </mxCell>
                <mxCell id="728" value="&lt;font color=&quot;#009900&quot;&gt;&amp;lt;&lt;/font&gt;" style="rounded=0;whiteSpace=wrap;html=1;rotation=-180;fillColor=#f5f5f5;fontColor=#333333;strokeColor=#666666;" parent="1" vertex="1">
                    <mxGeometry x="1040" y="70" width="20" height="20" as="geometry"/>
                </mxCell>
                <mxCell id="729" value="&lt;font color=&quot;#009900&quot;&gt;&amp;lt;&lt;/font&gt;" style="rounded=0;whiteSpace=wrap;html=1;rotation=-180;fillColor=#f5f5f5;fontColor=#333333;strokeColor=#666666;" parent="1" vertex="1">
                    <mxGeometry x="1040" y="50" width="20" height="20" as="geometry"/>
                </mxCell>
            </root>
        </mxGraphModel>
    </diagram>
</mxfile>